<svg width="198" height="222" viewBox="0 0 198 222" fill="none" xmlns="http://www.w3.org/2000/svg">
<g id="bodies">
<path fill-rule="evenodd" clip-rule="evenodd" d="M2.21654 178L4.22441 180L50.4055 196L85.5433 208.5L117.669 220.5H143.772L107.63 209L85.5433 201.5V198.5L77.5118 192.5H76.5079V190.5L72.4921 187L71.9902 186L70.9862 185H69.9823L67.9744 184L66.4685 182.5L109.638 192.5L136.242 198.5L138.25 199H140.258L143.27 198.5L145.78 197.5L148.289 196L149.293 195L156.823 197L159.333 196.5L162.344 195.5L164.352 193.5L165.356 191.5V189.5L164.854 189L164.352 188.5L162.846 188L160.337 189L156.823 189.5L148.289 188.5L121.685 182.5L104.116 178L102.61 177.5L101.606 175L98.0925 173L95.0807 171.5L94.0768 170L141.262 177L169.372 181.5L184.933 184H189.451L192.965 183L194.972 181.5L195.474 180L194.972 178L193.969 176.5L192.965 175.267L191.459 175L188.949 175.267L186.439 176L184.431 176.5L162.846 174L136.242 171.5L133.732 170L132.226 168L125.701 166L122.689 163L120.681 161.5L119.175 160.5L118.171 160L116.665 160.5L114.657 158.5L118.171 151L122.187 145L128.211 137L128.713 135.5L128.211 133.5L125.701 121.5L121.685 110L118.171 99.5L118.673 98.5L119.677 97.5L121.183 98H122.187L123.191 97.5L123.693 96.5H125.199L126.705 95.5L128.211 94L127.709 93L128.713 91.5L130.72 89.5L133.23 85.5L136.242 81.5L138.25 74.5V70V66L136.242 62.5L133.23 57L130.72 50.5L127.709 46L128.211 45.5L127.709 44.5L127.207 44L126.705 43.5L125.701 43H125.199L124.697 42.5L122.187 41.5L118.673 40.5L117.167 40L118.171 38.5L119.175 37.5L120.179 37L119.677 34.5L118.673 32L116.665 30L115.159 29.5V27.5L115.661 25.5L117.167 23.5V21.5L117.669 19V16.5L117.167 15.5L116.665 12L115.159 10L113.654 8.5L112.148 7.5L111.144 7L109.136 6L107.128 5.5H105.12L103.112 6L101.606 6.5L100.1 7L98.5945 8L96.5866 10L95.5827 11.5L94.5787 13L94.0768 15L93.5748 15.5L93.0728 17.5V19V20.5L93.5748 21.5V22.5V24V27V29.5L94.0768 30L95.0807 31L95.5827 32L95.0807 33.5L94.5787 34.5L93.5748 35.5L93.0728 37V39V40.5L93.5748 41.5L92.5709 43L90.061 43.5L88.5551 44L87.5512 44.5L86.5472 45L82.5315 43L79.0177 41L75.002 40L73.4961 39.5L73.998 36L74.5 35L73.998 33L75.002 31.5L75.5039 30.5V29.3839L77.0098 27.5V26L78.0138 22.5L78.5157 21L78.0138 20L77.5118 19L79.0177 17.5V16V14V13V12V10V8.5L78.5157 7L77.0098 5.5L75.5039 4.5L73.998 3.5L71.9902 2.5L69.9823 2H67.4724L62.9547 3L60.9469 4L58.939 5L56.9311 7L55.4252 8.5L54.9232 9.5L54.4213 12L53.9193 13L53.4173 14V16V17.5L54.4213 19L54.9232 20.5V23L52.9154 24.5L51.4095 27L48.8996 29.5L46.3898 32.5L45.8878 33.5L41.872 35L39.3622 35.5L34.3425 37L32.3346 39.5L29.8248 41.5L24.8051 43.5L21.7933 46L18.2795 48L15.2677 50L12.2559 53L10.75 55.5L10.248 58L11.252 61.5L12.2559 64.5V66.5L13.7618 69.5L14.2638 72.5C14.4311 73 14.7658 74.1 14.7658 74.5C14.7658 74.9 16.1043 76.3333 16.7736 77L17.7776 78.5L17.2756 80L18.7815 81L20.7894 82.5L22.7972 84.5C22.9646 84.6667 23.2992 85.1 23.2992 85.5V86.5L26.311 90L27.8169 93.5H30.8287H33.3386L34.8445 92L35.3465 91.5L35.8484 94.5V97.5V99.5L36.3504 101L35.8484 102.5L36.3504 103.5L36.8524 104L37.3543 106.5L38.3583 109L39.8642 115L41.3701 122.5L42.374 123.5L44.3819 130L48.3976 139.5L49.4016 143L51.4095 147L49.4016 150L48.3976 155.5L49.4016 159.5L48.3976 163V164.5L44.3819 161.5L43.378 162.5L42.876 163L31.8327 160.5L29.8248 160H28.8209L27.8169 161.5L27.315 162L26.813 163V164V164.5C26.813 164.9 27.4823 165.333 27.8169 165.5C28.3189 165.666 29.4232 166.047 29.8248 166.248C30.2264 166.45 35.3465 167.5 37.8563 168L41.3701 169V170.5V171.5H39.8642H38.8602L13.2598 166.248L11.252 165.5L8.74213 165L5.73032 167L5.22835 168L5.73032 169L7.23622 170.5L31.8327 174.745L39.3622 176V177.5L39.8642 178.5L40.3661 180L41.3701 181.5L40.3661 182L38.8602 182.5L38.3583 183.5L37.8563 184.5V185L14.7658 177L10.248 175.5L7.23622 174L2.71851 177L2.21654 178ZM35.8484 62L36.3504 63.5V65C36.5177 65.6667 36.8524 67.1 36.8524 67.5V69.5V71L37.3543 73.5V75.5V77.5V79V80H36.8524H35.8484L34.8445 80.5L33.3386 81L32.3346 81.5L31.8327 81V80V79L30.8287 78.5V77.5L31.8327 77L28.8209 75.5L27.8169 73.5L26.813 72V70.5V68.5V66.5L26.311 64.5V62.5L26.813 61.5L29.8248 60.5L34.8445 59L35.8484 62ZM76.0059 59.5L75.5039 60.5L75.002 61.5L74.5 62.5L73.998 63.5L73.4961 65V65.5H73.998L75.002 64L75.5039 63L76.5079 62L78.0138 61L78.5157 60L78.0138 59.5H76.0059ZM122.689 68L123.191 62.5L125.199 64.5L126.203 67L126.705 69.5L128.211 71.5V73.5L127.207 76L126.705 78L126.203 81.5L124.697 82.5V84.5L123.693 85.5L121.685 86.5V84.5V82V79.5L121.183 77V73L122.187 71L122.689 68ZM88.5551 64.5L87.5512 66.5L85.0413 69L83.0335 71L81.5276 73L80.5236 74.5L79.0177 76.5L76.5079 78.5L74.5 79L73.998 80L72.9941 81.5V83L73.4961 84C73.6634 84.1667 73.998 84.6 73.998 85V87V89C73.998 89.4 73.6634 91.1667 73.4961 92L72.4921 94.5L71.4882 96.5L70.9862 98L70.4843 100L70.9862 100.5L71.9902 101.5L72.9941 102.5L73.4961 104L74.5 106L75.5039 108V110L76.0059 112.5V115.5V117.5V120.5C76.0059 120.9 75.6713 122.667 75.5039 123.5C75.5039 124.833 75.3032 127.6 74.5 128V132L75.002 135V137.5L74.5 139.5L72.9941 142.5L71.9902 144.5L70.9862 146L70.4843 147V148.5L69.9823 149.5L69.4803 150.5L68.9783 152.5V154.5L68.4764 156.5L67.9744 159L66.9705 161.5V162.5L67.9744 163.5L68.4764 164L69.9823 162V160L69.4803 158.5L69.9823 157L71.4882 154L73.4961 149L75.5039 145L76.5079 143L77.5118 141.5L80.0217 139L81.5276 136.5L83.0335 135.5L84.0374 135L85.0413 134V132V129L84.5394 127V124L84.0374 121.5L83.5354 119V116L83.0335 114L82.5315 113L82.0295 108V105L82.5315 103L83.5354 98.5L84.0374 96L84.5394 93.5L85.0413 91.5L85.5433 89L86.0453 87.5L86.5472 85.5V84.5L86.0453 83.5V82.5L87.0492 82L88.0532 81.5L88.5551 80.5L89.5591 78.5C89.7264 77.8333 90.061 76.4 90.061 76V74L89.5591 72L90.061 70.5L90.563 69.5L90.061 68.5L89.5591 66.5L88.5551 64.5ZM83.5354 160V162.5L86.0453 163.5L89.0571 164.5H90.563V163.5V162.5L91.5669 162L94.5787 163V161L94.0768 159.5L93.5748 158.5L94.0768 157L95.5827 158.5L97.0886 160L98.5945 161.5L99.5984 161L100.1 159L100.602 157L101.104 155.5V154L102.108 152L103.614 149.5L104.618 147L106.626 143L107.63 141.5L109.638 139L111.144 136.5L113.152 135L112.148 132C111.813 131 111.144 128.9 111.144 128.5C111.144 128.1 110.809 127 110.642 126.5L109.638 125L108.634 123L107.63 121L105.12 117.5L104.116 115.5L103.614 114.5L101.104 111.5L100.602 114L100.1 117.5V120L99.5984 123L99.0965 124.5V129C98.9291 130.167 98.5945 132.6 98.5945 133C98.5945 133.4 98.2598 134.833 98.0925 135.5L96.5866 139.5L95.5827 142H94.0768L92.5709 144L91.5669 144.5L90.563 145.5V146.5C90.061 146.833 88.9567 147.6 88.5551 148C88.1535 148.4 88.0532 148.833 88.0532 149V151L87.0492 152L86.5472 153.5L85.5433 155.5L84.5394 157.5L84.0374 159L83.5354 160Z" fill="white"/>
<path d="M23.2992 85.5C23.2992 85.1 22.9646 84.6667 22.7972 84.5L20.7894 82.5L18.7815 81L17.2756 80L17.7776 78.5L16.7736 77C16.1043 76.3333 14.7658 74.9 14.7658 74.5C14.7658 74.1 14.4311 73 14.2638 72.5L13.7618 69.5L12.2559 66.5V64.5L11.252 61.5L10.248 58L10.75 55.5L12.2559 53L15.2677 50L18.2795 48L21.7933 46L24.8051 43.5L29.8248 41.5L32.3346 39.5L34.3425 37L39.3622 35.5L41.872 35L45.8878 33.5L46.3898 32.5L48.8996 29.5L51.4095 27L52.9154 24.5L54.9232 23V20.5L54.4213 19L53.4173 17.5V16V14L53.9193 13L54.4213 12L54.9232 9.5L55.4252 8.5L56.9311 7L58.939 5L60.9469 4L62.9547 3L67.4724 2H69.9823L71.9902 2.5L73.998 3.5L75.5039 4.5L77.0098 5.5L78.5157 7L79.0177 8.5V10V12V13V14V16V17.5L77.5118 19L78.0138 20L78.5157 21L78.0138 22.5L77.0098 26V27.5L75.5039 29.3839V30.5L75.002 31.5L73.998 33L74.5 35L73.998 36L73.4961 39.5L75.002 40L79.0177 41L82.5315 43L86.5472 45L87.5512 44.5L88.5551 44L90.061 43.5L92.5709 43L93.5748 41.5L93.0728 40.5V39V37L93.5748 35.5L94.5787 34.5L95.0807 33.5L95.5827 32L95.0807 31L94.0768 30L93.5748 29.5V27V24V22.5V21.5L93.0728 20.5V19V17.5L93.5748 15.5L94.0768 15L94.5787 13L95.5827 11.5L96.5866 10L98.5945 8L100.1 7L101.606 6.5L103.112 6L105.12 5.5H107.128L109.136 6L111.144 7L112.148 7.5L113.654 8.5L115.159 10L116.665 12L117.167 15.5L117.669 16.5V19L117.167 21.5V23.5L115.661 25.5L115.159 27.5V29.5L116.665 30L118.673 32L119.677 34.5L120.179 37L119.175 37.5L118.171 38.5L117.167 40L118.673 40.5L122.187 41.5L124.697 42.5L125.199 43H125.701L126.705 43.5L127.207 44L127.709 44.5L128.211 45.5L127.709 46L130.72 50.5L133.23 57L136.242 62.5L138.25 66V70V74.5L136.242 81.5L133.23 85.5L130.72 89.5L128.713 91.5L127.709 93L128.211 94L126.705 95.5L125.199 96.5H123.693L123.191 97.5L122.187 98H121.183L119.677 97.5L118.673 98.5L118.171 99.5L121.685 110L125.701 121.5L128.211 133.5L128.713 135.5L128.211 137L122.187 145L118.171 151L114.657 158.5L116.665 160.5L118.171 160L119.175 160.5L120.681 161.5L122.689 163L125.701 166L132.226 168L133.732 170L136.242 171.5L162.846 174L184.431 176.5L186.439 176L188.949 175.267L191.459 175L192.965 175.267L193.969 176.5L194.972 178L195.474 180L194.972 181.5L192.965 183L189.451 184H184.933L169.372 181.5L141.262 177L94.0768 170L95.0807 171.5L98.0925 173L101.606 175L102.61 177.5L104.116 178L121.685 182.5L148.289 188.5L156.823 189.5L160.337 189L162.846 188L164.352 188.5L164.854 189L165.356 189.5V191.5L164.352 193.5L162.344 195.5L159.333 196.5L156.823 197L149.293 195L148.289 196L145.78 197.5L143.27 198.5L140.258 199H138.25L136.242 198.5L109.638 192.5L66.4685 182.5L67.9744 184L69.9823 185H70.9862L71.9902 186L72.4921 187L76.5079 190.5V192.5H77.5118L85.5433 198.5V201.5L107.63 209L143.772 220.5H117.669L85.5433 208.5L50.4055 196L4.22441 180L2.21654 178L2.71851 177L7.23622 174L10.248 175.5L14.7658 177L37.8563 185V184.5L38.3583 183.5L38.8602 182.5L40.3661 182L41.3701 181.5L40.3661 180L39.8642 178.5L39.3622 177.5V176L31.8327 174.745L7.23622 170.5L5.73032 169L5.22835 168L5.73032 167L8.74213 165L11.252 165.5L13.2598 166.248L38.8602 171.5H39.8642H41.3701V170.5V169L37.8563 168C35.3465 167.5 30.2264 166.45 29.8248 166.248C29.4232 166.047 28.3189 165.666 27.8169 165.5C27.4823 165.333 26.813 164.9 26.813 164.5M23.2992 85.5C23.2992 85.9 23.2992 86.3333 23.2992 86.5M23.2992 85.5V86.5M23.2992 86.5L26.311 90L27.8169 93.5H30.8287H33.3386L34.8445 92L35.3465 91.5L35.8484 94.5V97.5V99.5L36.3504 101L35.8484 102.5L36.3504 103.5L36.8524 104L37.3543 106.5L38.3583 109L39.8642 115L41.3701 122.5L42.374 123.5L44.3819 130L48.3976 139.5L49.4016 143L51.4095 147L49.4016 150L48.3976 155.5L49.4016 159.5L48.3976 163V164.5L44.3819 161.5L43.378 162.5L42.876 163L31.8327 160.5L29.8248 160H28.8209L27.8169 161.5L27.315 162L26.813 163V164M26.813 164C26.813 164 26.813 164.1 26.813 164.5M26.813 164V164.5M36.8524 69.5V71L37.3543 73.5V75.5V77.5V79V80H36.8524H35.8484L34.8445 80.5L33.3386 81L32.3346 81.5L31.8327 81V80V79L30.8287 78.5V77.5L31.8327 77L28.8209 75.5L27.8169 73.5L26.813 72V70.5V68.5V66.5L26.311 64.5V62.5L26.813 61.5L29.8248 60.5L34.8445 59L35.8484 62L36.3504 63.5V65C36.5177 65.6667 36.8524 67.1 36.8524 67.5M36.8524 69.5C36.8524 69 36.8524 67.9 36.8524 67.5M36.8524 69.5V67.5M73.998 85C73.998 84.6 73.6634 84.1667 73.4961 84L72.9941 83V81.5L73.998 80L74.5 79L76.5079 78.5L79.0177 76.5L80.5236 74.5L81.5276 73L83.0335 71L85.0413 69L87.5512 66.5L88.5551 64.5L89.5591 66.5L90.061 68.5L90.563 69.5L90.061 70.5L89.5591 72L90.061 74M73.998 85C73.998 85.4 73.998 86.5 73.998 87M73.998 85V87M73.998 87C73.998 87.5 73.998 88.6 73.998 89M73.998 87V89M73.998 89C73.998 89.4 73.6634 91.1667 73.4961 92L72.4921 94.5L71.4882 96.5L70.9862 98L70.4843 100L70.9862 100.5L71.9902 101.5L72.9941 102.5L73.4961 104L74.5 106L75.5039 108V110L76.0059 112.5V115.5V117.5M76.0059 117.5C76.0059 118.333 76.0059 120.1 76.0059 120.5M76.0059 117.5V120.5M76.0059 120.5C76.0059 120.9 75.6713 122.667 75.5039 123.5C75.5039 124.833 75.3032 127.6 74.5 128M74.5 128C74.5 130.8 74.5 131.833 74.5 132M74.5 128V132M74.5 132L75.002 135V137.5L74.5 139.5L72.9941 142.5L71.9902 144.5L70.9862 146L70.4843 147V148.5L69.9823 149.5L69.4803 150.5L68.9783 152.5V154.5L68.4764 156.5L67.9744 159L66.9705 161.5V162.5L67.9744 163.5L68.4764 164L69.9823 162V160L69.4803 158.5L69.9823 157L71.4882 154L73.4961 149L75.5039 145L76.5079 143L77.5118 141.5L80.0217 139L81.5276 136.5L83.0335 135.5L84.0374 135L85.0413 134V132V129L84.5394 127V124L84.0374 121.5L83.5354 119V116L83.0335 114L82.5315 113L82.0295 108V105L82.5315 103L83.5354 98.5L84.0374 96L84.5394 93.5L85.0413 91.5L85.5433 89L86.0453 87.5L86.5472 85.5V84.5L86.0453 83.5V82.5L87.0492 82L88.0532 81.5L88.5551 80.5L89.5591 78.5C89.7264 77.8333 90.061 76.4 90.061 76M90.061 76C90.061 75.6 90.061 74.5 90.061 74M90.061 76V74M76.0059 59.5L75.5039 60.5L75.002 61.5L74.5 62.5L73.998 63.5L73.4961 65V65.5H73.998L75.002 64L75.5039 63L76.5079 62L78.0138 61L78.5157 60L78.0138 59.5H76.0059ZM83.5354 162.5V160L84.0374 159L84.5394 157.5L85.5433 155.5L86.5472 153.5L87.0492 152L88.0532 151V149C88.0532 148.833 88.1535 148.4 88.5551 148C88.9567 147.6 90.061 146.833 90.563 146.5V145.5L91.5669 144.5L92.5709 144L94.0768 142H95.5827L96.5866 139.5L98.0925 135.5C98.2598 134.833 98.5945 133.4 98.5945 133C98.5945 132.6 98.9291 130.167 99.0965 129V124.5L99.5984 123L100.1 120V117.5L100.602 114L101.104 111.5L103.614 114.5L104.116 115.5L105.12 117.5L107.63 121L108.634 123L109.638 125L110.642 126.5C110.809 127 111.144 128.1 111.144 128.5C111.144 128.9 111.813 131 112.148 132L113.152 135L111.144 136.5L109.638 139L107.63 141.5L106.626 143L104.618 147L103.614 149.5L102.108 152L101.104 154V155.5L100.602 157L100.1 159L99.5984 161L98.5945 161.5L97.0886 160L95.5827 158.5L94.0768 157L93.5748 158.5L94.0768 159.5L94.5787 161V163L91.5669 162L90.563 162.5V163.5V164.5H89.0571L86.0453 163.5L83.5354 162.5ZM123.191 62.5L122.689 68L122.187 71L121.183 73V77L121.685 79.5V82V84.5V86.5L123.693 85.5L124.697 84.5V82.5L126.203 81.5L126.705 78L127.207 76L128.211 73.5V71.5L126.705 69.5L126.203 67L125.199 64.5L123.191 62.5Z" stroke="white" stroke-width="3"/>
</g>
</svg>
