<svg width="296" height="391" viewBox="0 0 296 391" fill="none" xmlns="http://www.w3.org/2000/svg">
<g id="boxing">
<path id="Remas" fill-rule="evenodd" clip-rule="evenodd" d="M0 390.5V80.5H296V390.5H0ZM22 346.5V100.5H275V346.5H22Z" fill="white"/>
<g id="boxGlovesGroup">
<path id="leftglove" d="M103.313 221.575C104.186 215.462 105.548 205.922 105.548 205.922M103.313 221.575C106.827 226.093 123.991 229.401 123.991 229.401C123.991 229.401 140.954 231.637 149.141 231.637M103.313 221.575C75.2825 244.151 76.2042 258.112 79.84 282.508M103.313 221.575L105.548 205.922M105.548 205.922C107.626 198.128 109.725 190.795 114.49 184.12C121.832 184.545 139.265 186.704 150.258 191.947L153.053 193.065L154.729 194.742L155.288 196.978L153.5 204.5L149 207C148.633 210.638 148.259 218.422 149.699 220.457V223.811L149.141 231.637M79.84 282.508L82.0755 283.905C86.3622 290.201 90.302 290.932 97.1652 289.216L99.1174 288.098L101.077 285.303C102.768 279.665 104.007 269.583 109.46 266.855L113.931 265.737L120.638 262.383L123.991 259.588L126.227 256.234M79.84 282.508L81.5167 284.744C79.2517 298.337 94.8082 310.119 106.107 313.813C118.371 315.875 144.259 315.2 149.699 296C145.011 291.267 138.671 277.245 150.817 259.029C151.376 256.111 151.823 246.547 149.141 231.637M130.139 251.762L138.522 248.967M131.815 245.613L137.332 243.341M141.316 241.699L137.332 243.341M131.815 240.581C132.208 240.34 132.675 240.065 133.19 239.779C134.046 239.302 135.035 238.791 136.034 238.343M141.316 237.227C140.298 236.718 138.146 237.392 136.034 238.343M133.492 237.227C133.946 236.955 134.538 236.615 135.199 236.259M141.316 233.873C139.964 233.873 137.248 235.152 135.199 236.259M134.61 234.991C134.781 235.333 134.983 235.764 135.199 236.259M137.404 244.495C137.404 244.127 137.378 243.74 137.332 243.341M137.332 243.341C137.243 242.59 137.081 241.795 136.873 241M136.034 238.343C135.756 237.581 135.467 236.871 135.199 236.259M136.034 238.343C136.342 239.187 136.636 240.094 136.873 241M91.5 301C101.333 291.565 125.5 275.776 143.5 288.098M133 243L136.873 241M136.873 241C137.915 240.473 140.3 239.535 141.5 240M132.374 248C134.96 246.908 140.369 244.903 141.316 245.613M134.61 243.341C135.116 244.56 136.202 248 136.5 252" stroke="white" stroke-width="2"/>
<path id="rightglove" d="M196.763 233.443L197.881 234.002L204.587 247.419L215.206 269.779L218 279.842C221.189 340.447 133.908 318.528 150.376 296.053M196.763 233.443H192.292L186.703 234.002L176.643 236.238C172.508 237.729 161.847 243.953 152.291 256.922M196.763 233.443C196.173 231.969 195.659 230.476 195.197 228.971M150.376 296.053C154.873 300.101 157.521 302.203 163.789 302.203C180.405 296.227 169.346 286.418 179.846 279.842M150.376 296.053C147.694 293.769 146.278 290.257 145.905 288.786C144.601 287.482 142.664 282.078 145.346 270.898C147.47 265.94 149.694 261.232 152.291 256.922M152.291 256.922C152.558 256.475 151.871 253.382 151.494 251.891C152.008 245.87 153.571 240.81 154.288 239.033M195.197 228.971C194.149 225.554 193.37 222.071 192.59 218.585C191.173 212.246 189.753 205.895 186.703 199.902C172.664 197.572 161.136 199.673 149.259 207.169L148.7 214.996L151.494 230.648L152.612 235.12L154.288 239.033M195.197 228.971C187.542 228.785 168.642 230.536 154.288 239.033" stroke="white" stroke-width="2"/>
</g>
<path id="hanger" d="M146.471 161.319L142 188.711L145.353 189.829L148.148 169.704L149.265 161.319L150.942 148.461L153.736 165.791L156.531 179.207L160 201.5L163 200.5L161.002 189.829L159.325 179.207L156.531 165.791L153.736 147.343C157.244 142.728 153.573 140.131 150.383 140C148.04 139.994 145.023 141.938 146.471 146.225L147.589 147.902L146.471 161.319Z" stroke="white" stroke-width="2"/>
<g id="segtukas2">
<g id="Vector 1">
<path fill-rule="evenodd" clip-rule="evenodd" d="M88.0746 59.4872L89.6311 52.6709L90.5651 45.8547L91.1877 39.9679L91.8103 29.7436L92.4329 19.5192L93.3669 5.88675L92.4329 4.09513L90.2538 3.40812L86.8293 2.78846L83.4049 2.1688L81.2257 1.85897L78.7352 1.54915L74.0656 1.85897L73.1316 2.78846L72.8203 4.09513L74.3769 4.02778L79.3579 4.95726L83.7162 6.50641L88.0746 9.29487V59.4872Z" fill="#821010"/>
<path fill-rule="evenodd" clip-rule="evenodd" d="M88.0746 59.4872L89.6311 52.6709L90.5651 45.8547L91.1877 39.9679L91.8103 29.7436L92.4329 19.5192L93.3669 5.88675L92.4329 4.09513L90.2538 3.40812L86.8293 2.78846L83.4049 2.1688L81.2257 1.85897L78.7352 1.54915L74.0656 1.85897L73.1316 2.78846L72.8203 4.09513L74.3769 4.02778L79.3579 4.95726L83.7162 6.50641L88.0746 9.29487V59.4872Z" fill="#FE6060"/>
<path d="M79.3579 83.6538L83.7162 85.203L84.9615 81.7949L85.5841 77.1474V75.9081L85.335 74.6688L84.7669 72.0353L84.3388 70.3312L83.7162 67.8526L82.1597 68.7821L80.6031 69.4017L78.4239 69.7115L76.8674 70.0214L74.9995 70.3312L72.8203 70.641H67.8393H64.1036H61.6131H60.3679L58.8113 70.3312L60.0566 72.8098L60.9905 75.9081V79.0064L60.6792 81.7949L60.0566 84.5833L59.1226 86.8761L61.9244 85.203L67.2167 83.6538H74.3769H79.3579Z" fill="#821010"/>
<path d="M79.3579 83.6538L83.7162 85.203L84.9615 81.7949L85.5841 77.1474V75.9081L85.335 74.6688L84.7669 72.0353L84.3388 70.3312L83.7162 67.8526L82.1597 68.7821L80.6031 69.4017L78.4239 69.7115L76.8674 70.0214L74.9995 70.3312L72.8203 70.641H67.8393H64.1036H61.6131H60.3679L58.8113 70.3312L60.0566 72.8098L60.9905 75.9081V79.0064L60.6792 81.7949L60.0566 84.5833L59.1226 86.8761L61.9244 85.203L67.2167 83.6538H74.3769H79.3579Z" fill="#FE6060"/>
<path d="M58.8113 142.831L61.9244 144.38L67.2167 145H74.3769L79.3579 144.38L83.7162 142.831V114.637V85.203L79.3579 83.6538H74.3769H67.2167L61.9244 85.203L59.1226 86.8761L58.8113 87.062V142.831Z" fill="#821010"/>
<path d="M58.8113 142.831L61.9244 144.38L67.2167 145H74.3769L79.3579 144.38L83.7162 142.831V114.637V85.203L79.3579 83.6538H74.3769H67.2167L61.9244 85.203L59.1226 86.8761L58.8113 87.062V142.831Z" fill="#FE6060"/>
<path d="M58.8113 52.6709V70.3312L60.3679 70.641H61.6131H64.1036H67.8393H72.8203L74.9995 70.3312L76.8674 70.0214L78.4239 69.7115L80.6031 69.4017L82.1597 68.7821L83.7162 67.8526V9.91453L79.3579 8.05556L74.3769 6.81624H67.2167L61.9244 8.05556L58.8113 9.91453L59.1226 17.9701L58.8113 52.6709Z" fill="#821010"/>
<path d="M58.8113 52.6709V70.3312L60.3679 70.641H61.6131H64.1036H67.8393H72.8203L74.9995 70.3312L76.8674 70.0214L78.4239 69.7115L80.6031 69.4017L82.1597 68.7821L83.7162 67.8526V9.91453L79.3579 8.05556L74.3769 6.81624H67.2167L61.9244 8.05556L58.8113 9.91453L59.1226 17.9701L58.8113 52.6709Z" fill="#FE6060"/>
<path d="M58.8113 142.831L61.9244 144.38L67.2167 145H74.3769L79.3579 144.38L83.7162 142.831V114.637V85.203L79.3579 83.6538H74.3769H67.2167L61.9244 85.203L59.1226 86.8761L58.8113 87.062V142.831Z" fill="#821010"/>
<path d="M58.8113 142.831L61.9244 144.38L67.2167 145H74.3769L79.3579 144.38L83.7162 142.831V114.637V85.203L79.3579 83.6538H74.3769H67.2167L61.9244 85.203L59.1226 86.8761L58.8113 87.062V142.831Z" fill="#FE6060"/>
<path d="M58.8113 52.6709V70.3312L60.3679 70.641H61.6131H64.1036H67.8393H72.8203L74.9995 70.3312L76.8674 70.0214L78.4239 69.7115L80.6031 69.4017L82.1597 68.7821L83.7162 67.8526V9.91453L79.3579 8.05556L74.3769 6.81624H67.2167L61.9244 8.05556L58.8113 9.91453L59.1226 17.9701L58.8113 52.6709Z" fill="#821010"/>
<path d="M58.8113 52.6709V70.3312L60.3679 70.641H61.6131H64.1036H67.8393H72.8203L74.9995 70.3312L76.8674 70.0214L78.4239 69.7115L80.6031 69.4017L82.1597 68.7821L83.7162 67.8526V9.91453L79.3579 8.05556L74.3769 6.81624H67.2167L61.9244 8.05556L58.8113 9.91453L59.1226 17.9701L58.8113 52.6709Z" fill="#FE6060"/>
<path d="M58.8113 52.6709V70.3312L60.3679 70.641H61.6131H64.1036H67.8393H72.8203L74.9995 70.3312L76.8674 70.0214L78.4239 69.7115L80.6031 69.4017L82.1597 68.7821L83.7162 67.8526V9.91453L79.3579 8.05556L74.3769 6.81624H67.2167L61.9244 8.05556L58.8113 9.91453L59.1226 17.9701L58.8113 52.6709Z" fill="#821010"/>
<path d="M58.8113 52.6709V70.3312L60.3679 70.641H61.6131H64.1036H67.8393H72.8203L74.9995 70.3312L76.8674 70.0214L78.4239 69.7115L80.6031 69.4017L82.1597 68.7821L83.7162 67.8526V9.91453L79.3579 8.05556L74.3769 6.81624H67.2167L61.9244 8.05556L58.8113 9.91453L59.1226 17.9701L58.8113 52.6709Z" fill="#FE6060"/>
</g>
<g id="Vector 5">
<path d="M91.1877 57.938L89.6311 64.1346L88.3859 70.0214L88.0746 67.8526V62.5855V59.4872L89.6311 52.6709L90.5651 45.8547L91.1877 39.9679L91.8103 29.7436L92.4329 19.5192L93.3669 5.88675L92.4329 4.09513L90.2537 3.40812L86.8293 2.78846L83.4049 2.1688L81.2257 1.85897L78.7352 1.54915L74.0656 1.85897L76.8674 0.619658L81.2257 0H85.8954L89.6311 0.619658L93.3669 1.23932L95.2347 2.1688L96.48 4.33761L96.1687 9.29487L95.2347 19.5192L94.6121 29.7436L93.9895 39.9679L93.3669 45.8547L92.4329 52.6709L91.1877 57.938Z" fill="#821010"/>
<path d="M91.1877 57.938L89.6311 64.1346L88.3859 70.0214L88.0746 67.8526V62.5855V59.4872L89.6311 52.6709L90.5651 45.8547L91.1877 39.9679L91.8103 29.7436L92.4329 19.5192L93.3669 5.88675L92.4329 4.09513L90.2537 3.40812L86.8293 2.78846L83.4049 2.1688L81.2257 1.85897L78.7352 1.54915L74.0656 1.85897L76.8674 0.619658L81.2257 0H85.8954L89.6311 0.619658L93.3669 1.23932L95.2347 2.1688L96.48 4.33761L96.1687 9.29487L95.2347 19.5192L94.6121 29.7436L93.9895 39.9679L93.3669 45.8547L92.4329 52.6709L91.1877 57.938Z" fill="#FE6060"/>
</g>
<g id="Vector 4">
<path d="M83.7162 114.637V142.831L85.5841 140.353L87.1406 137.564L88.0746 134.466V131.677V127.65V122.692V118.355V114.637L87.1406 112.158L86.518 110.299V109.06V108.13L86.8293 106.891L87.1406 105.652L88.0746 104.103V100.075V93.2585V88.3013V83.6538L89.6311 78.3867V75.9081V74.9786L89.0085 72.1902L88.3859 70.0214L88.0746 67.8526V62.5855V59.4872V9.29486L83.7162 6.5064L79.3578 4.95726L74.3768 4.02777L72.8203 4.09513L67.2167 4.3376L61.9244 6.81623L58.8113 9.91452L61.9244 8.05555L67.2167 6.81623H74.3768L79.3578 8.05555L83.7162 9.91452V67.8526L84.3388 70.3312L84.7669 72.0352L85.335 74.6688L85.5841 75.9081V77.1474L84.9614 81.7949L83.7162 85.203V114.637Z" fill="#821010"/>
<path d="M83.7162 114.637V142.831L85.5841 140.353L87.1406 137.564L88.0746 134.466V131.677V127.65V122.692V118.355V114.637L87.1406 112.158L86.518 110.299V109.06V108.13L86.8293 106.891L87.1406 105.652L88.0746 104.103V100.075V93.2585V88.3013V83.6538L89.6311 78.3867V75.9081V74.9786L89.0085 72.1902L88.3859 70.0214L88.0746 67.8526V62.5855V59.4872V9.29486L83.7162 6.5064L79.3578 4.95726L74.3768 4.02777L72.8203 4.09513L67.2167 4.3376L61.9244 6.81623L58.8113 9.91452L61.9244 8.05555L67.2167 6.81623H74.3768L79.3578 8.05555L83.7162 9.91452V67.8526L84.3388 70.3312L84.7669 72.0352L85.335 74.6688L85.5841 75.9081V77.1474L84.9614 81.7949L83.7162 85.203V114.637Z" fill="#FE6060"/>
</g>
<g id="Vector 3">
<path d="M58.8113 52.6709V70.3312L60.3678 70.641H61.6131H64.1036H67.8393H72.8203L74.9995 70.3312L76.8673 70.0214L78.4239 69.7115L80.6031 69.4017L82.1596 68.782L83.7162 67.8525V9.91451L79.3578 8.05554L74.3769 6.81622H67.2167L61.9244 8.05554L58.8113 9.91451L59.1226 17.9701L58.8113 52.6709Z" fill="#821010"/>
<path d="M58.8113 52.6709V70.3312L60.3678 70.641H61.6131H64.1036H67.8393H72.8203L74.9995 70.3312L76.8673 70.0214L78.4239 69.7115L80.6031 69.4017L82.1596 68.782L83.7162 67.8525V9.91451L79.3578 8.05554L74.3769 6.81622H67.2167L61.9244 8.05554L58.8113 9.91451L59.1226 17.9701L58.8113 52.6709Z" fill="#E25353"/>
<path d="M58.8113 52.6709V70.3312L60.3678 70.641H61.6131H64.1036H67.8393H72.8203L74.9995 70.3312L76.8673 70.0214L78.4239 69.7115L80.6031 69.4017L82.1596 68.782L83.7162 67.8525V9.91451L79.3578 8.05554L74.3769 6.81622H67.2167L61.9244 8.05554L58.8113 9.91451L59.1226 17.9701L58.8113 52.6709Z" fill="#821010"/>
<path d="M58.8113 52.6709V70.3312L60.3678 70.641H61.6131H64.1036H67.8393H72.8203L74.9995 70.3312L76.8673 70.0214L78.4239 69.7115L80.6031 69.4017L82.1596 68.782L83.7162 67.8525V9.91451L79.3578 8.05554L74.3769 6.81622H67.2167L61.9244 8.05554L58.8113 9.91451L59.1226 17.9701L58.8113 52.6709Z" fill="#E25353"/>
<path d="M58.8113 52.6709V70.3312L60.3678 70.641H61.6131H64.1036H67.8393H72.8203L74.9995 70.3312L76.8673 70.0214L78.4239 69.7115L80.6031 69.4017L82.1596 68.782L83.7162 67.8525V9.91451L79.3578 8.05554L74.3769 6.81622H67.2167L61.9244 8.05554L58.8113 9.91451L59.1226 17.9701L58.8113 52.6709Z" fill="#821010"/>
<path d="M58.8113 52.6709V70.3312L60.3678 70.641H61.6131H64.1036H67.8393H72.8203L74.9995 70.3312L76.8673 70.0214L78.4239 69.7115L80.6031 69.4017L82.1596 68.782L83.7162 67.8525V9.91451L79.3578 8.05554L74.3769 6.81622H67.2167L61.9244 8.05554L58.8113 9.91451L59.1226 17.9701L58.8113 52.6709Z" fill="#E25353"/>
</g>
<path id="Vector 2" d="M58.8113 142.831L61.9244 144.38L67.2167 145H74.3769L79.3578 144.38L83.7162 142.831V114.637V85.203L79.3578 83.6538H74.3769H67.2167L61.9244 85.203L59.1226 86.8761L58.8113 87.062V142.831Z" fill="#E25353"/>
<path id="metalthing" fill-rule="evenodd" clip-rule="evenodd" d="M85.5841 78.0769L60.9905 76.8376V77.4573V78.6966L73.2024 79.4711L85.4143 80.2457L86.8293 79.9359L87.7633 79.3162L88.6972 78.3867L89.3198 77.1474L89.5274 76.3212L89.6311 75.9081L89.9424 74.359V73.1197L89.6311 71.8803L89.0085 71.2607L88.4866 70.9693L87.8986 70.641H87.1406H86.518L85.8954 70.9509L85.4143 71.5705L84.9615 72.1902L84.7669 72.9647L84.6501 73.4295V74.359L84.9615 74.9786L85.335 75.5983L86.2067 76.2179L86.8293 76.5278H87.7633L87.452 77.1474L86.8293 77.7671L85.5841 78.0769ZM88.0746 72.5L88.3859 73.1197V74.359L88.0746 75.2885H87.452L86.8293 74.9786L86.2067 74.359L85.8954 73.7393V73.1197L86.2067 72.5L86.8293 71.8803H87.452L88.0746 72.5Z" fill="#C4C4C4"/>
</g>
<g id="segtukas2_2">
<g id="Vector 1_2">
<path fill-rule="evenodd" clip-rule="evenodd" d="M243.075 59.4872L244.631 52.6709L245.565 45.8547L246.188 39.9679L246.81 29.7436L247.433 19.5192L248.367 5.88675L247.433 4.09513L245.254 3.40812L241.829 2.78846L238.405 2.1688L236.226 1.85897L233.735 1.54915L229.066 1.85897L228.132 2.78846L227.82 4.09513L229.377 4.02778L234.358 4.95726L238.716 6.50641L243.075 9.29487V59.4872Z" fill="#821010"/>
<path fill-rule="evenodd" clip-rule="evenodd" d="M243.075 59.4872L244.631 52.6709L245.565 45.8547L246.188 39.9679L246.81 29.7436L247.433 19.5192L248.367 5.88675L247.433 4.09513L245.254 3.40812L241.829 2.78846L238.405 2.1688L236.226 1.85897L233.735 1.54915L229.066 1.85897L228.132 2.78846L227.82 4.09513L229.377 4.02778L234.358 4.95726L238.716 6.50641L243.075 9.29487V59.4872Z" fill="#FE6060"/>
<path d="M234.358 83.6538L238.716 85.203L239.961 81.7949L240.584 77.1474V75.9081L240.335 74.6688L239.767 72.0353L239.339 70.3312L238.716 67.8526L237.16 68.7821L235.603 69.4017L233.424 69.7115L231.867 70.0214L230 70.3312L227.82 70.641H222.839H219.104H216.613H215.368L213.811 70.3312L215.057 72.8098L215.99 75.9081V79.0064L215.679 81.7949L215.057 84.5833L214.123 86.8761L216.924 85.203L222.217 83.6538H229.377H234.358Z" fill="#821010"/>
<path d="M234.358 83.6538L238.716 85.203L239.961 81.7949L240.584 77.1474V75.9081L240.335 74.6688L239.767 72.0353L239.339 70.3312L238.716 67.8526L237.16 68.7821L235.603 69.4017L233.424 69.7115L231.867 70.0214L230 70.3312L227.82 70.641H222.839H219.104H216.613H215.368L213.811 70.3312L215.057 72.8098L215.99 75.9081V79.0064L215.679 81.7949L215.057 84.5833L214.123 86.8761L216.924 85.203L222.217 83.6538H229.377H234.358Z" fill="#FE6060"/>
<path d="M213.811 142.831L216.924 144.38L222.217 145H229.377L234.358 144.38L238.716 142.831V114.637V85.203L234.358 83.6538H229.377H222.217L216.924 85.203L214.123 86.8761L213.811 87.062V142.831Z" fill="#821010"/>
<path d="M213.811 142.831L216.924 144.38L222.217 145H229.377L234.358 144.38L238.716 142.831V114.637V85.203L234.358 83.6538H229.377H222.217L216.924 85.203L214.123 86.8761L213.811 87.062V142.831Z" fill="#FE6060"/>
<path d="M213.811 52.6709V70.3312L215.368 70.641H216.613H219.104H222.839H227.82L230 70.3312L231.867 70.0214L233.424 69.7115L235.603 69.4017L237.16 68.7821L238.716 67.8526V9.91453L234.358 8.05556L229.377 6.81624H222.217L216.924 8.05556L213.811 9.91453L214.123 17.9701L213.811 52.6709Z" fill="#821010"/>
<path d="M213.811 52.6709V70.3312L215.368 70.641H216.613H219.104H222.839H227.82L230 70.3312L231.867 70.0214L233.424 69.7115L235.603 69.4017L237.16 68.7821L238.716 67.8526V9.91453L234.358 8.05556L229.377 6.81624H222.217L216.924 8.05556L213.811 9.91453L214.123 17.9701L213.811 52.6709Z" fill="#FE6060"/>
<path d="M213.811 142.831L216.924 144.38L222.217 145H229.377L234.358 144.38L238.716 142.831V114.637V85.203L234.358 83.6538H229.377H222.217L216.924 85.203L214.123 86.8761L213.811 87.062V142.831Z" fill="#821010"/>
<path d="M213.811 142.831L216.924 144.38L222.217 145H229.377L234.358 144.38L238.716 142.831V114.637V85.203L234.358 83.6538H229.377H222.217L216.924 85.203L214.123 86.8761L213.811 87.062V142.831Z" fill="#FE6060"/>
<path d="M213.811 52.6709V70.3312L215.368 70.641H216.613H219.104H222.839H227.82L230 70.3312L231.867 70.0214L233.424 69.7115L235.603 69.4017L237.16 68.7821L238.716 67.8526V9.91453L234.358 8.05556L229.377 6.81624H222.217L216.924 8.05556L213.811 9.91453L214.123 17.9701L213.811 52.6709Z" fill="#821010"/>
<path d="M213.811 52.6709V70.3312L215.368 70.641H216.613H219.104H222.839H227.82L230 70.3312L231.867 70.0214L233.424 69.7115L235.603 69.4017L237.16 68.7821L238.716 67.8526V9.91453L234.358 8.05556L229.377 6.81624H222.217L216.924 8.05556L213.811 9.91453L214.123 17.9701L213.811 52.6709Z" fill="#FE6060"/>
<path d="M213.811 52.6709V70.3312L215.368 70.641H216.613H219.104H222.839H227.82L230 70.3312L231.867 70.0214L233.424 69.7115L235.603 69.4017L237.16 68.7821L238.716 67.8526V9.91453L234.358 8.05556L229.377 6.81624H222.217L216.924 8.05556L213.811 9.91453L214.123 17.9701L213.811 52.6709Z" fill="#821010"/>
<path d="M213.811 52.6709V70.3312L215.368 70.641H216.613H219.104H222.839H227.82L230 70.3312L231.867 70.0214L233.424 69.7115L235.603 69.4017L237.16 68.7821L238.716 67.8526V9.91453L234.358 8.05556L229.377 6.81624H222.217L216.924 8.05556L213.811 9.91453L214.123 17.9701L213.811 52.6709Z" fill="#FE6060"/>
</g>
<g id="Vector 5_2">
<path d="M246.188 57.938L244.631 64.1346L243.386 70.0214L243.075 67.8526V62.5855V59.4872L244.631 52.6709L245.565 45.8547L246.188 39.9679L246.81 29.7436L247.433 19.5192L248.367 5.88675L247.433 4.09513L245.254 3.40812L241.829 2.78846L238.405 2.1688L236.226 1.85897L233.735 1.54915L229.066 1.85897L231.867 0.619658L236.226 0H240.895L244.631 0.619658L248.367 1.23932L250.235 2.1688L251.48 4.33761L251.169 9.29487L250.235 19.5192L249.612 29.7436L248.989 39.9679L248.367 45.8547L247.433 52.6709L246.188 57.938Z" fill="#821010"/>
<path d="M246.188 57.938L244.631 64.1346L243.386 70.0214L243.075 67.8526V62.5855V59.4872L244.631 52.6709L245.565 45.8547L246.188 39.9679L246.81 29.7436L247.433 19.5192L248.367 5.88675L247.433 4.09513L245.254 3.40812L241.829 2.78846L238.405 2.1688L236.226 1.85897L233.735 1.54915L229.066 1.85897L231.867 0.619658L236.226 0H240.895L244.631 0.619658L248.367 1.23932L250.235 2.1688L251.48 4.33761L251.169 9.29487L250.235 19.5192L249.612 29.7436L248.989 39.9679L248.367 45.8547L247.433 52.6709L246.188 57.938Z" fill="#FE6060"/>
</g>
<g id="Vector 4_2">
<path d="M238.716 114.637V142.831L240.584 140.353L242.141 137.564L243.075 134.466V131.677V127.65V122.692V118.355V114.637L242.141 112.158L241.518 110.299V109.06V108.13L241.829 106.891L242.141 105.652L243.075 104.103V100.075V93.2585V88.3013V83.6538L244.631 78.3867V75.9081V74.9786L244.008 72.1902L243.386 70.0214L243.075 67.8526V62.5855V59.4872V9.29486L238.716 6.5064L234.358 4.95726L229.377 4.02777L227.82 4.09513L222.217 4.3376L216.924 6.81623L213.811 9.91452L216.924 8.05555L222.217 6.81623H229.377L234.358 8.05555L238.716 9.91452V67.8526L239.339 70.3312L239.767 72.0352L240.335 74.6688L240.584 75.9081V77.1474L239.961 81.7949L238.716 85.203V114.637Z" fill="#821010"/>
<path d="M238.716 114.637V142.831L240.584 140.353L242.141 137.564L243.075 134.466V131.677V127.65V122.692V118.355V114.637L242.141 112.158L241.518 110.299V109.06V108.13L241.829 106.891L242.141 105.652L243.075 104.103V100.075V93.2585V88.3013V83.6538L244.631 78.3867V75.9081V74.9786L244.008 72.1902L243.386 70.0214L243.075 67.8526V62.5855V59.4872V9.29486L238.716 6.5064L234.358 4.95726L229.377 4.02777L227.82 4.09513L222.217 4.3376L216.924 6.81623L213.811 9.91452L216.924 8.05555L222.217 6.81623H229.377L234.358 8.05555L238.716 9.91452V67.8526L239.339 70.3312L239.767 72.0352L240.335 74.6688L240.584 75.9081V77.1474L239.961 81.7949L238.716 85.203V114.637Z" fill="#FE6060"/>
</g>
<g id="Vector 3_2">
<path d="M213.811 52.6709V70.3312L215.368 70.641H216.613H219.104H222.839H227.82L229.999 70.3312L231.867 70.0214L233.424 69.7115L235.603 69.4017L237.16 68.782L238.716 67.8525V9.91451L234.358 8.05554L229.377 6.81622H222.217L216.924 8.05554L213.811 9.91451L214.123 17.9701L213.811 52.6709Z" fill="#821010"/>
<path d="M213.811 52.6709V70.3312L215.368 70.641H216.613H219.104H222.839H227.82L229.999 70.3312L231.867 70.0214L233.424 69.7115L235.603 69.4017L237.16 68.782L238.716 67.8525V9.91451L234.358 8.05554L229.377 6.81622H222.217L216.924 8.05554L213.811 9.91451L214.123 17.9701L213.811 52.6709Z" fill="#E25353"/>
<path d="M213.811 52.6709V70.3312L215.368 70.641H216.613H219.104H222.839H227.82L229.999 70.3312L231.867 70.0214L233.424 69.7115L235.603 69.4017L237.16 68.782L238.716 67.8525V9.91451L234.358 8.05554L229.377 6.81622H222.217L216.924 8.05554L213.811 9.91451L214.123 17.9701L213.811 52.6709Z" fill="#821010"/>
<path d="M213.811 52.6709V70.3312L215.368 70.641H216.613H219.104H222.839H227.82L229.999 70.3312L231.867 70.0214L233.424 69.7115L235.603 69.4017L237.16 68.782L238.716 67.8525V9.91451L234.358 8.05554L229.377 6.81622H222.217L216.924 8.05554L213.811 9.91451L214.123 17.9701L213.811 52.6709Z" fill="#E25353"/>
<path d="M213.811 52.6709V70.3312L215.368 70.641H216.613H219.104H222.839H227.82L229.999 70.3312L231.867 70.0214L233.424 69.7115L235.603 69.4017L237.16 68.782L238.716 67.8525V9.91451L234.358 8.05554L229.377 6.81622H222.217L216.924 8.05554L213.811 9.91451L214.123 17.9701L213.811 52.6709Z" fill="#821010"/>
<path d="M213.811 52.6709V70.3312L215.368 70.641H216.613H219.104H222.839H227.82L229.999 70.3312L231.867 70.0214L233.424 69.7115L235.603 69.4017L237.16 68.782L238.716 67.8525V9.91451L234.358 8.05554L229.377 6.81622H222.217L216.924 8.05554L213.811 9.91451L214.123 17.9701L213.811 52.6709Z" fill="#E25353"/>
</g>
<path id="Vector 2_2" d="M213.811 142.831L216.924 144.38L222.217 145H229.377L234.358 144.38L238.716 142.831V114.637V85.203L234.358 83.6538H229.377H222.217L216.924 85.203L214.123 86.8761L213.811 87.062V142.831Z" fill="#E25353"/>
<path id="metalthing_2" fill-rule="evenodd" clip-rule="evenodd" d="M240.584 78.0769L215.99 76.8376V77.4573V78.6966L228.202 79.4711L240.414 80.2457L241.829 79.9359L242.763 79.3162L243.697 78.3867L244.32 77.1474L244.527 76.3212L244.631 75.9081L244.942 74.359V73.1197L244.631 71.8803L244.009 71.2607L243.487 70.9693L242.899 70.641H242.141H241.518L240.895 70.9509L240.414 71.5705L239.961 72.1902L239.767 72.9647L239.65 73.4295V74.359L239.961 74.9786L240.335 75.5983L241.207 76.2179L241.829 76.5278H242.763L242.452 77.1474L241.829 77.7671L240.584 78.0769ZM243.075 72.5L243.386 73.1197V74.359L243.075 75.2885H242.452L241.829 74.9786L241.207 74.359L240.895 73.7393V73.1197L241.207 72.5L241.829 71.8803H242.452L243.075 72.5Z" fill="#C4C4C4"/>
</g>
</g>
</svg>
