<svg width="296" height="391" viewBox="0 0 296 391" fill="none" xmlns="http://www.w3.org/2000/svg">
<g id="food">
<path id="Remas" fill-rule="evenodd" clip-rule="evenodd" d="M0 390.5V80.5H296V390.5H0ZM22 346.5V100.5H275V346.5H22Z" fill="white"/>
<path id="bbq" d="M97 261V264C97.4 266.4 100 273 103 277.5C103.4 278.3 107.5 282.5 114.5 285.5L107 302L106 302.5C104.8 303.3 101.5 309.5 100 312.5C100 313.3 104.5 316 112 315C113.2 313 114.5 309 114 306C116.333 300.167 121.1 288.6 121.5 289C121.9 289.4 124.667 290.167 126 290.5L117 322L115 324L113.5 326L111.5 332.5C111.5 332.833 111.5 333.7 111.5 334.5C111.5 335.3 116.5 337.167 119 338H122.5L125 336.5L127 332.5L128 329.5L127.5 327.5L127 326V325L135 293C154.2 293.8 166.667 291 170.5 289.5L184 316.5L183.5 317L183 318C183 319.2 184.333 323.167 185 325C195 328 198.5 324 198.5 323.5C198.5 323.1 194.833 317 193 314H192.5L177.5 286.5C186.5 282.5 187.5 280 188.5 279C189.3 278.2 193.167 269 195 264.5M97 261C95.1667 260.333 91.2 258.3 90 255.5C88.5 252 88.5 250.5 88.5 249C88.5 247.5 90.5 244 91 243.5C91.5 243 95 239 97 238C97.9743 237.513 99.3046 236.788 100.76 236M97 261C139.8 277 180.167 270 195 264.5M105.5 233.5C103.5 232.667 98.3 230.2 93.5 227C92.5 226.167 90.1 223.7 88.5 220.5C88 218.667 87.5 214.3 89.5 211.5C92 208 95 206 98 204C97.5 205 96.5 207.3 96.5 208.5C96.5 210 96.5 210 97 212.5C97.4 214.5 100.833 214.667 102.5 214.5C103.333 214.5 105.1 213.6 105.5 210C105.9 206.4 103.333 201.167 102 199C101 197.5 100 193.7 104 190.5C109 186.5 111 181.5 111.5 179.5C112 177.5 112.5 173 112 172C111.5 171 116.425 177.084 117 179C118.5 184 116.5 187 116 189.5C115.333 191 115 194.6 119 197C123 199.4 126 197.333 127 196C127.833 194.333 128.8 190.1 126 186.5C123.2 182.9 122.833 177.667 123 175.5C123.167 172 125.073 164.808 128.5 161C133 156 140 152.5 142.5 152C141.167 153.167 139.243 156.143 138.5 158C137.5 160.5 138 162 139 164C141.377 168.753 144.5 168.4 148.5 168C154.5 165 153.8 160 153 156C152.667 153.833 151.3 149 148.5 147C145 144.5 142.5 141 142.5 139.5C142.5 138 144 134 144.5 134C145 134 143 136.5 150 140C157 143.5 159.709 145.709 160.5 146.5C162.5 148.5 162.5 148.5 163.5 151C164.167 152.667 165.4 157 165 161C164.6 165 160 171 159.5 175C159.333 175.833 159.1 177.9 159.5 179.5C159.9 181.1 162 181.833 163 182C164.167 182.167 166.9 181.9 168.5 179.5C170.1 177.1 170.167 167.833 170 163.5C172.167 165.667 176.6 170.3 177 171.5C177.5 173 178.5 175.5 178 178C177.5 180.5 175 184.5 174 185.5C173.2 186.3 170.5 189.5 170 192C169.5 193.833 169.2 197.7 172 198.5C174.8 199.3 177.833 197.167 179 196C179.5 195.167 180.5 192.4 180.5 188C180.5 183.6 182.833 180.833 184 180C185.5 178.667 189.1 176.1 191.5 176.5C190.333 177.833 188.1 181.4 188.5 185C189 189.5 189.5 191.5 190 192C190.5 192.5 192.5 194 193 195.5C193.4 196.7 192.833 199.333 192.5 200.5C191.5 203 188.3 204.7 187.5 205.5C185.833 206.5 182.4 209.3 182 212.5C181.5 216.5 181.5 217 182 218C182.5 219 185 220.5 186 220.5C187 220.5 189.5 221.5 192 219C194 217 192.5 212.5 191.5 210.5C191.5 208.833 193.1 205 199.5 203C198.5 204.333 196.6 207.3 197 208.5C197.5 210 199 211.5 200 213C201 214.5 204 218.5 203.5 221C203.1 223 200.667 226.167 199.5 227.5C198 229.167 193.8 232.8 189 234M105.5 233.5C103.961 234.269 102.291 235.17 100.76 236M105.5 233.5C109.006 232.331 112.331 231.344 115.5 230.513M189 234C184.333 232 172 227.8 160 227C152.895 226.526 145.679 226.165 137.5 226.766M189 234C192.833 236 200.8 241.1 202 245.5C202.5 246.5 203.6 249.2 204 252C204.5 255.5 199 264.5 195 264.5M189 234C189.7 234.442 190.361 234.879 190.985 235.311M100.76 236C100.338 236.242 99.9159 236.502 99.5 236.776M93.5 244.136L176.5 261.239M93.5 244.136C94.1024 241.244 96.6665 238.649 99.5 236.776M93.5 244.136C93.0921 246.095 93.5836 248.189 95.5 250.287M176.5 261.239C183.359 259.963 188.68 258.361 192 257C196.404 255.128 201.71 250.755 199.5 244.658M176.5 261.239C170.431 262.369 163.157 263.243 155 263.469M99.5 236.776L195 254.5M115.5 230.513L199.5 244.658M115.5 230.513C123.747 228.35 130.934 227.248 137.5 226.766M199.5 244.658C198.492 241.876 195.92 238.736 190.985 235.311M137.5 226.766L190.985 235.311M95.5 250.287C98.6234 253.706 105.532 257.135 118.5 260C131.727 262.922 144.146 263.77 155 263.469M95.5 250.287L155 263.469" stroke="white" stroke-width="3"/>
<g id="segtukas2">
<g id="Vector 1">
<path fill-rule="evenodd" clip-rule="evenodd" d="M88.0746 59.4872L89.6311 52.6709L90.5651 45.8547L91.1877 39.9679L91.8103 29.7436L92.4329 19.5192L93.3669 5.88675L92.4329 4.09513L90.2538 3.40812L86.8293 2.78846L83.4049 2.1688L81.2257 1.85897L78.7352 1.54915L74.0656 1.85897L73.1316 2.78846L72.8203 4.09513L74.3769 4.02778L79.3579 4.95726L83.7162 6.50641L88.0746 9.29487V59.4872Z" fill="#821010"/>
<path fill-rule="evenodd" clip-rule="evenodd" d="M88.0746 59.4872L89.6311 52.6709L90.5651 45.8547L91.1877 39.9679L91.8103 29.7436L92.4329 19.5192L93.3669 5.88675L92.4329 4.09513L90.2538 3.40812L86.8293 2.78846L83.4049 2.1688L81.2257 1.85897L78.7352 1.54915L74.0656 1.85897L73.1316 2.78846L72.8203 4.09513L74.3769 4.02778L79.3579 4.95726L83.7162 6.50641L88.0746 9.29487V59.4872Z" fill="#FE6060"/>
<path d="M79.3579 83.6538L83.7162 85.203L84.9615 81.7949L85.5841 77.1474V75.9081L85.335 74.6688L84.7669 72.0353L84.3388 70.3312L83.7162 67.8526L82.1597 68.7821L80.6031 69.4017L78.4239 69.7115L76.8674 70.0214L74.9995 70.3312L72.8203 70.641H67.8393H64.1036H61.6131H60.3679L58.8113 70.3312L60.0566 72.8098L60.9905 75.9081V79.0064L60.6792 81.7949L60.0566 84.5833L59.1226 86.8761L61.9244 85.203L67.2167 83.6538H74.3769H79.3579Z" fill="#821010"/>
<path d="M79.3579 83.6538L83.7162 85.203L84.9615 81.7949L85.5841 77.1474V75.9081L85.335 74.6688L84.7669 72.0353L84.3388 70.3312L83.7162 67.8526L82.1597 68.7821L80.6031 69.4017L78.4239 69.7115L76.8674 70.0214L74.9995 70.3312L72.8203 70.641H67.8393H64.1036H61.6131H60.3679L58.8113 70.3312L60.0566 72.8098L60.9905 75.9081V79.0064L60.6792 81.7949L60.0566 84.5833L59.1226 86.8761L61.9244 85.203L67.2167 83.6538H74.3769H79.3579Z" fill="#FE6060"/>
<path d="M58.8113 142.831L61.9244 144.38L67.2167 145H74.3769L79.3579 144.38L83.7162 142.831V114.637V85.203L79.3579 83.6538H74.3769H67.2167L61.9244 85.203L59.1226 86.8761L58.8113 87.062V142.831Z" fill="#821010"/>
<path d="M58.8113 142.831L61.9244 144.38L67.2167 145H74.3769L79.3579 144.38L83.7162 142.831V114.637V85.203L79.3579 83.6538H74.3769H67.2167L61.9244 85.203L59.1226 86.8761L58.8113 87.062V142.831Z" fill="#FE6060"/>
<path d="M58.8113 52.6709V70.3312L60.3679 70.641H61.6131H64.1036H67.8393H72.8203L74.9995 70.3312L76.8674 70.0214L78.4239 69.7115L80.6031 69.4017L82.1597 68.7821L83.7162 67.8526V9.91453L79.3579 8.05556L74.3769 6.81624H67.2167L61.9244 8.05556L58.8113 9.91453L59.1226 17.9701L58.8113 52.6709Z" fill="#821010"/>
<path d="M58.8113 52.6709V70.3312L60.3679 70.641H61.6131H64.1036H67.8393H72.8203L74.9995 70.3312L76.8674 70.0214L78.4239 69.7115L80.6031 69.4017L82.1597 68.7821L83.7162 67.8526V9.91453L79.3579 8.05556L74.3769 6.81624H67.2167L61.9244 8.05556L58.8113 9.91453L59.1226 17.9701L58.8113 52.6709Z" fill="#FE6060"/>
<path d="M58.8113 142.831L61.9244 144.38L67.2167 145H74.3769L79.3579 144.38L83.7162 142.831V114.637V85.203L79.3579 83.6538H74.3769H67.2167L61.9244 85.203L59.1226 86.8761L58.8113 87.062V142.831Z" fill="#821010"/>
<path d="M58.8113 142.831L61.9244 144.38L67.2167 145H74.3769L79.3579 144.38L83.7162 142.831V114.637V85.203L79.3579 83.6538H74.3769H67.2167L61.9244 85.203L59.1226 86.8761L58.8113 87.062V142.831Z" fill="#FE6060"/>
<path d="M58.8113 52.6709V70.3312L60.3679 70.641H61.6131H64.1036H67.8393H72.8203L74.9995 70.3312L76.8674 70.0214L78.4239 69.7115L80.6031 69.4017L82.1597 68.7821L83.7162 67.8526V9.91453L79.3579 8.05556L74.3769 6.81624H67.2167L61.9244 8.05556L58.8113 9.91453L59.1226 17.9701L58.8113 52.6709Z" fill="#821010"/>
<path d="M58.8113 52.6709V70.3312L60.3679 70.641H61.6131H64.1036H67.8393H72.8203L74.9995 70.3312L76.8674 70.0214L78.4239 69.7115L80.6031 69.4017L82.1597 68.7821L83.7162 67.8526V9.91453L79.3579 8.05556L74.3769 6.81624H67.2167L61.9244 8.05556L58.8113 9.91453L59.1226 17.9701L58.8113 52.6709Z" fill="#FE6060"/>
<path d="M58.8113 52.6709V70.3312L60.3679 70.641H61.6131H64.1036H67.8393H72.8203L74.9995 70.3312L76.8674 70.0214L78.4239 69.7115L80.6031 69.4017L82.1597 68.7821L83.7162 67.8526V9.91453L79.3579 8.05556L74.3769 6.81624H67.2167L61.9244 8.05556L58.8113 9.91453L59.1226 17.9701L58.8113 52.6709Z" fill="#821010"/>
<path d="M58.8113 52.6709V70.3312L60.3679 70.641H61.6131H64.1036H67.8393H72.8203L74.9995 70.3312L76.8674 70.0214L78.4239 69.7115L80.6031 69.4017L82.1597 68.7821L83.7162 67.8526V9.91453L79.3579 8.05556L74.3769 6.81624H67.2167L61.9244 8.05556L58.8113 9.91453L59.1226 17.9701L58.8113 52.6709Z" fill="#FE6060"/>
</g>
<g id="Vector 5">
<path d="M91.1877 57.938L89.6311 64.1346L88.3859 70.0214L88.0746 67.8526V62.5855V59.4872L89.6311 52.6709L90.5651 45.8547L91.1877 39.9679L91.8103 29.7436L92.4329 19.5192L93.3669 5.88675L92.4329 4.09513L90.2537 3.40812L86.8293 2.78846L83.4049 2.1688L81.2257 1.85897L78.7352 1.54915L74.0656 1.85897L76.8674 0.619658L81.2257 0H85.8954L89.6311 0.619658L93.3669 1.23932L95.2347 2.1688L96.48 4.33761L96.1687 9.29487L95.2347 19.5192L94.6121 29.7436L93.9895 39.9679L93.3669 45.8547L92.4329 52.6709L91.1877 57.938Z" fill="#821010"/>
<path d="M91.1877 57.938L89.6311 64.1346L88.3859 70.0214L88.0746 67.8526V62.5855V59.4872L89.6311 52.6709L90.5651 45.8547L91.1877 39.9679L91.8103 29.7436L92.4329 19.5192L93.3669 5.88675L92.4329 4.09513L90.2537 3.40812L86.8293 2.78846L83.4049 2.1688L81.2257 1.85897L78.7352 1.54915L74.0656 1.85897L76.8674 0.619658L81.2257 0H85.8954L89.6311 0.619658L93.3669 1.23932L95.2347 2.1688L96.48 4.33761L96.1687 9.29487L95.2347 19.5192L94.6121 29.7436L93.9895 39.9679L93.3669 45.8547L92.4329 52.6709L91.1877 57.938Z" fill="#FE6060"/>
</g>
<g id="Vector 4">
<path d="M83.7162 114.637V142.831L85.5841 140.353L87.1406 137.564L88.0746 134.466V131.677V127.65V122.692V118.355V114.637L87.1406 112.158L86.518 110.299V109.06V108.13L86.8293 106.891L87.1406 105.652L88.0746 104.103V100.075V93.2585V88.3013V83.6538L89.6311 78.3867V75.9081V74.9786L89.0085 72.1902L88.3859 70.0214L88.0746 67.8526V62.5855V59.4872V9.29486L83.7162 6.5064L79.3578 4.95726L74.3768 4.02777L72.8203 4.09513L67.2167 4.3376L61.9244 6.81623L58.8113 9.91452L61.9244 8.05555L67.2167 6.81623H74.3768L79.3578 8.05555L83.7162 9.91452V67.8526L84.3388 70.3312L84.7669 72.0352L85.335 74.6688L85.5841 75.9081V77.1474L84.9614 81.7949L83.7162 85.203V114.637Z" fill="#821010"/>
<path d="M83.7162 114.637V142.831L85.5841 140.353L87.1406 137.564L88.0746 134.466V131.677V127.65V122.692V118.355V114.637L87.1406 112.158L86.518 110.299V109.06V108.13L86.8293 106.891L87.1406 105.652L88.0746 104.103V100.075V93.2585V88.3013V83.6538L89.6311 78.3867V75.9081V74.9786L89.0085 72.1902L88.3859 70.0214L88.0746 67.8526V62.5855V59.4872V9.29486L83.7162 6.5064L79.3578 4.95726L74.3768 4.02777L72.8203 4.09513L67.2167 4.3376L61.9244 6.81623L58.8113 9.91452L61.9244 8.05555L67.2167 6.81623H74.3768L79.3578 8.05555L83.7162 9.91452V67.8526L84.3388 70.3312L84.7669 72.0352L85.335 74.6688L85.5841 75.9081V77.1474L84.9614 81.7949L83.7162 85.203V114.637Z" fill="#FE6060"/>
</g>
<g id="Vector 3">
<path d="M58.8113 52.6709V70.3312L60.3678 70.641H61.6131H64.1036H67.8393H72.8203L74.9995 70.3312L76.8673 70.0214L78.4239 69.7115L80.6031 69.4017L82.1596 68.782L83.7162 67.8525V9.91451L79.3578 8.05554L74.3769 6.81622H67.2167L61.9244 8.05554L58.8113 9.91451L59.1226 17.9701L58.8113 52.6709Z" fill="#821010"/>
<path d="M58.8113 52.6709V70.3312L60.3678 70.641H61.6131H64.1036H67.8393H72.8203L74.9995 70.3312L76.8673 70.0214L78.4239 69.7115L80.6031 69.4017L82.1596 68.782L83.7162 67.8525V9.91451L79.3578 8.05554L74.3769 6.81622H67.2167L61.9244 8.05554L58.8113 9.91451L59.1226 17.9701L58.8113 52.6709Z" fill="#E25353"/>
<path d="M58.8113 52.6709V70.3312L60.3678 70.641H61.6131H64.1036H67.8393H72.8203L74.9995 70.3312L76.8673 70.0214L78.4239 69.7115L80.6031 69.4017L82.1596 68.782L83.7162 67.8525V9.91451L79.3578 8.05554L74.3769 6.81622H67.2167L61.9244 8.05554L58.8113 9.91451L59.1226 17.9701L58.8113 52.6709Z" fill="#821010"/>
<path d="M58.8113 52.6709V70.3312L60.3678 70.641H61.6131H64.1036H67.8393H72.8203L74.9995 70.3312L76.8673 70.0214L78.4239 69.7115L80.6031 69.4017L82.1596 68.782L83.7162 67.8525V9.91451L79.3578 8.05554L74.3769 6.81622H67.2167L61.9244 8.05554L58.8113 9.91451L59.1226 17.9701L58.8113 52.6709Z" fill="#E25353"/>
<path d="M58.8113 52.6709V70.3312L60.3678 70.641H61.6131H64.1036H67.8393H72.8203L74.9995 70.3312L76.8673 70.0214L78.4239 69.7115L80.6031 69.4017L82.1596 68.782L83.7162 67.8525V9.91451L79.3578 8.05554L74.3769 6.81622H67.2167L61.9244 8.05554L58.8113 9.91451L59.1226 17.9701L58.8113 52.6709Z" fill="#821010"/>
<path d="M58.8113 52.6709V70.3312L60.3678 70.641H61.6131H64.1036H67.8393H72.8203L74.9995 70.3312L76.8673 70.0214L78.4239 69.7115L80.6031 69.4017L82.1596 68.782L83.7162 67.8525V9.91451L79.3578 8.05554L74.3769 6.81622H67.2167L61.9244 8.05554L58.8113 9.91451L59.1226 17.9701L58.8113 52.6709Z" fill="#E25353"/>
</g>
<path id="Vector 2" d="M58.8113 142.831L61.9244 144.38L67.2167 145H74.3769L79.3578 144.38L83.7162 142.831V114.637V85.203L79.3578 83.6539H74.3769H67.2167L61.9244 85.203L59.1226 86.8761L58.8113 87.062V142.831Z" fill="#E25353"/>
<path id="metalthing" fill-rule="evenodd" clip-rule="evenodd" d="M85.5841 78.0769L60.9905 76.8376V77.4572V78.6965L73.2024 79.4711L85.4143 80.2457L86.8293 79.9359L87.7633 79.3162L88.6972 78.3867L89.3198 77.1474L89.5274 76.3212L89.6311 75.9081L89.9424 74.3589V73.1196L89.6311 71.8803L89.0085 71.2606L88.4866 70.9693L87.8986 70.641H87.1406H86.518L85.8954 70.9508L85.4143 71.5705L84.9615 72.1901L84.7669 72.9647L84.6501 73.4295V74.3589L84.9615 74.9786L85.335 75.5983L86.2067 76.2179L86.8293 76.5277H87.7633L87.4519 77.1474L86.8293 77.7671L85.5841 78.0769ZM88.0746 72.5L88.3859 73.1196V74.3589L88.0746 75.2884H87.4519L86.8293 74.9786L86.2067 74.3589L85.8954 73.7393V73.1196L86.2067 72.5L86.8293 71.8803H87.4519L88.0746 72.5Z" fill="#C4C4C4"/>
</g>
<g id="segtukas2_2">
<g id="Vector 1_2">
<path fill-rule="evenodd" clip-rule="evenodd" d="M243.075 59.4872L244.631 52.6709L245.565 45.8547L246.188 39.9679L246.81 29.7436L247.433 19.5192L248.367 5.88675L247.433 4.09513L245.254 3.40812L241.829 2.78846L238.405 2.1688L236.226 1.85897L233.735 1.54915L229.066 1.85897L228.132 2.78846L227.82 4.09513L229.377 4.02778L234.358 4.95726L238.716 6.50641L243.075 9.29487V59.4872Z" fill="#821010"/>
<path fill-rule="evenodd" clip-rule="evenodd" d="M243.075 59.4872L244.631 52.6709L245.565 45.8547L246.188 39.9679L246.81 29.7436L247.433 19.5192L248.367 5.88675L247.433 4.09513L245.254 3.40812L241.829 2.78846L238.405 2.1688L236.226 1.85897L233.735 1.54915L229.066 1.85897L228.132 2.78846L227.82 4.09513L229.377 4.02778L234.358 4.95726L238.716 6.50641L243.075 9.29487V59.4872Z" fill="#FE6060"/>
<path d="M234.358 83.6538L238.716 85.203L239.961 81.7949L240.584 77.1474V75.9081L240.335 74.6688L239.767 72.0353L239.339 70.3312L238.716 67.8526L237.16 68.7821L235.603 69.4017L233.424 69.7115L231.867 70.0214L230 70.3312L227.82 70.641H222.839H219.104H216.613H215.368L213.811 70.3312L215.057 72.8098L215.99 75.9081V79.0064L215.679 81.7949L215.057 84.5833L214.123 86.8761L216.924 85.203L222.217 83.6538H229.377H234.358Z" fill="#821010"/>
<path d="M234.358 83.6538L238.716 85.203L239.961 81.7949L240.584 77.1474V75.9081L240.335 74.6688L239.767 72.0353L239.339 70.3312L238.716 67.8526L237.16 68.7821L235.603 69.4017L233.424 69.7115L231.867 70.0214L230 70.3312L227.82 70.641H222.839H219.104H216.613H215.368L213.811 70.3312L215.057 72.8098L215.99 75.9081V79.0064L215.679 81.7949L215.057 84.5833L214.123 86.8761L216.924 85.203L222.217 83.6538H229.377H234.358Z" fill="#FE6060"/>
<path d="M213.811 142.831L216.924 144.38L222.217 145H229.377L234.358 144.38L238.716 142.831V114.637V85.203L234.358 83.6538H229.377H222.217L216.924 85.203L214.123 86.8761L213.811 87.062V142.831Z" fill="#821010"/>
<path d="M213.811 142.831L216.924 144.38L222.217 145H229.377L234.358 144.38L238.716 142.831V114.637V85.203L234.358 83.6538H229.377H222.217L216.924 85.203L214.123 86.8761L213.811 87.062V142.831Z" fill="#FE6060"/>
<path d="M213.811 52.6709V70.3312L215.368 70.641H216.613H219.104H222.839H227.82L230 70.3312L231.867 70.0214L233.424 69.7115L235.603 69.4017L237.16 68.7821L238.716 67.8526V9.91453L234.358 8.05556L229.377 6.81624H222.217L216.924 8.05556L213.811 9.91453L214.123 17.9701L213.811 52.6709Z" fill="#821010"/>
<path d="M213.811 52.6709V70.3312L215.368 70.641H216.613H219.104H222.839H227.82L230 70.3312L231.867 70.0214L233.424 69.7115L235.603 69.4017L237.16 68.7821L238.716 67.8526V9.91453L234.358 8.05556L229.377 6.81624H222.217L216.924 8.05556L213.811 9.91453L214.123 17.9701L213.811 52.6709Z" fill="#FE6060"/>
<path d="M213.811 142.831L216.924 144.38L222.217 145H229.377L234.358 144.38L238.716 142.831V114.637V85.203L234.358 83.6538H229.377H222.217L216.924 85.203L214.123 86.8761L213.811 87.062V142.831Z" fill="#821010"/>
<path d="M213.811 142.831L216.924 144.38L222.217 145H229.377L234.358 144.38L238.716 142.831V114.637V85.203L234.358 83.6538H229.377H222.217L216.924 85.203L214.123 86.8761L213.811 87.062V142.831Z" fill="#FE6060"/>
<path d="M213.811 52.6709V70.3312L215.368 70.641H216.613H219.104H222.839H227.82L230 70.3312L231.867 70.0214L233.424 69.7115L235.603 69.4017L237.16 68.7821L238.716 67.8526V9.91453L234.358 8.05556L229.377 6.81624H222.217L216.924 8.05556L213.811 9.91453L214.123 17.9701L213.811 52.6709Z" fill="#821010"/>
<path d="M213.811 52.6709V70.3312L215.368 70.641H216.613H219.104H222.839H227.82L230 70.3312L231.867 70.0214L233.424 69.7115L235.603 69.4017L237.16 68.7821L238.716 67.8526V9.91453L234.358 8.05556L229.377 6.81624H222.217L216.924 8.05556L213.811 9.91453L214.123 17.9701L213.811 52.6709Z" fill="#FE6060"/>
<path d="M213.811 52.6709V70.3312L215.368 70.641H216.613H219.104H222.839H227.82L230 70.3312L231.867 70.0214L233.424 69.7115L235.603 69.4017L237.16 68.7821L238.716 67.8526V9.91453L234.358 8.05556L229.377 6.81624H222.217L216.924 8.05556L213.811 9.91453L214.123 17.9701L213.811 52.6709Z" fill="#821010"/>
<path d="M213.811 52.6709V70.3312L215.368 70.641H216.613H219.104H222.839H227.82L230 70.3312L231.867 70.0214L233.424 69.7115L235.603 69.4017L237.16 68.7821L238.716 67.8526V9.91453L234.358 8.05556L229.377 6.81624H222.217L216.924 8.05556L213.811 9.91453L214.123 17.9701L213.811 52.6709Z" fill="#FE6060"/>
</g>
<g id="Vector 5_2">
<path d="M246.188 57.938L244.631 64.1346L243.386 70.0214L243.075 67.8526V62.5855V59.4872L244.631 52.6709L245.565 45.8547L246.188 39.9679L246.81 29.7436L247.433 19.5192L248.367 5.88675L247.433 4.09513L245.254 3.40812L241.829 2.78846L238.405 2.1688L236.226 1.85897L233.735 1.54915L229.066 1.85897L231.867 0.619658L236.226 0H240.895L244.631 0.619658L248.367 1.23932L250.235 2.1688L251.48 4.33761L251.169 9.29487L250.235 19.5192L249.612 29.7436L248.989 39.9679L248.367 45.8547L247.433 52.6709L246.188 57.938Z" fill="#821010"/>
<path d="M246.188 57.938L244.631 64.1346L243.386 70.0214L243.075 67.8526V62.5855V59.4872L244.631 52.6709L245.565 45.8547L246.188 39.9679L246.81 29.7436L247.433 19.5192L248.367 5.88675L247.433 4.09513L245.254 3.40812L241.829 2.78846L238.405 2.1688L236.226 1.85897L233.735 1.54915L229.066 1.85897L231.867 0.619658L236.226 0H240.895L244.631 0.619658L248.367 1.23932L250.235 2.1688L251.48 4.33761L251.169 9.29487L250.235 19.5192L249.612 29.7436L248.989 39.9679L248.367 45.8547L247.433 52.6709L246.188 57.938Z" fill="#FE6060"/>
</g>
<g id="Vector 4_2">
<path d="M238.716 114.637V142.831L240.584 140.353L242.141 137.564L243.075 134.466V131.677V127.65V122.692V118.355V114.637L242.141 112.158L241.518 110.299V109.06V108.13L241.829 106.891L242.141 105.652L243.075 104.103V100.075V93.2585V88.3013V83.6538L244.631 78.3867V75.9081V74.9786L244.008 72.1902L243.386 70.0214L243.075 67.8526V62.5855V59.4872V9.29486L238.716 6.5064L234.358 4.95726L229.377 4.02777L227.82 4.09513L222.217 4.3376L216.924 6.81623L213.811 9.91452L216.924 8.05555L222.217 6.81623H229.377L234.358 8.05555L238.716 9.91452V67.8526L239.339 70.3312L239.767 72.0352L240.335 74.6688L240.584 75.9081V77.1474L239.961 81.7949L238.716 85.203V114.637Z" fill="#821010"/>
<path d="M238.716 114.637V142.831L240.584 140.353L242.141 137.564L243.075 134.466V131.677V127.65V122.692V118.355V114.637L242.141 112.158L241.518 110.299V109.06V108.13L241.829 106.891L242.141 105.652L243.075 104.103V100.075V93.2585V88.3013V83.6538L244.631 78.3867V75.9081V74.9786L244.008 72.1902L243.386 70.0214L243.075 67.8526V62.5855V59.4872V9.29486L238.716 6.5064L234.358 4.95726L229.377 4.02777L227.82 4.09513L222.217 4.3376L216.924 6.81623L213.811 9.91452L216.924 8.05555L222.217 6.81623H229.377L234.358 8.05555L238.716 9.91452V67.8526L239.339 70.3312L239.767 72.0352L240.335 74.6688L240.584 75.9081V77.1474L239.961 81.7949L238.716 85.203V114.637Z" fill="#FE6060"/>
</g>
<g id="Vector 3_2">
<path d="M213.811 52.6709V70.3312L215.368 70.641H216.613H219.104H222.839H227.82L229.999 70.3312L231.867 70.0214L233.424 69.7115L235.603 69.4017L237.16 68.782L238.716 67.8525V9.91451L234.358 8.05554L229.377 6.81622H222.217L216.924 8.05554L213.811 9.91451L214.123 17.9701L213.811 52.6709Z" fill="#821010"/>
<path d="M213.811 52.6709V70.3312L215.368 70.641H216.613H219.104H222.839H227.82L229.999 70.3312L231.867 70.0214L233.424 69.7115L235.603 69.4017L237.16 68.782L238.716 67.8525V9.91451L234.358 8.05554L229.377 6.81622H222.217L216.924 8.05554L213.811 9.91451L214.123 17.9701L213.811 52.6709Z" fill="#E25353"/>
<path d="M213.811 52.6709V70.3312L215.368 70.641H216.613H219.104H222.839H227.82L229.999 70.3312L231.867 70.0214L233.424 69.7115L235.603 69.4017L237.16 68.782L238.716 67.8525V9.91451L234.358 8.05554L229.377 6.81622H222.217L216.924 8.05554L213.811 9.91451L214.123 17.9701L213.811 52.6709Z" fill="#821010"/>
<path d="M213.811 52.6709V70.3312L215.368 70.641H216.613H219.104H222.839H227.82L229.999 70.3312L231.867 70.0214L233.424 69.7115L235.603 69.4017L237.16 68.782L238.716 67.8525V9.91451L234.358 8.05554L229.377 6.81622H222.217L216.924 8.05554L213.811 9.91451L214.123 17.9701L213.811 52.6709Z" fill="#E25353"/>
<path d="M213.811 52.6709V70.3312L215.368 70.641H216.613H219.104H222.839H227.82L229.999 70.3312L231.867 70.0214L233.424 69.7115L235.603 69.4017L237.16 68.782L238.716 67.8525V9.91451L234.358 8.05554L229.377 6.81622H222.217L216.924 8.05554L213.811 9.91451L214.123 17.9701L213.811 52.6709Z" fill="#821010"/>
<path d="M213.811 52.6709V70.3312L215.368 70.641H216.613H219.104H222.839H227.82L229.999 70.3312L231.867 70.0214L233.424 69.7115L235.603 69.4017L237.16 68.782L238.716 67.8525V9.91451L234.358 8.05554L229.377 6.81622H222.217L216.924 8.05554L213.811 9.91451L214.123 17.9701L213.811 52.6709Z" fill="#E25353"/>
</g>
<path id="Vector 2_2" d="M213.811 142.831L216.924 144.38L222.217 145H229.377L234.358 144.38L238.716 142.831V114.637V85.203L234.358 83.6539H229.377H222.217L216.924 85.203L214.123 86.8761L213.811 87.062V142.831Z" fill="#E25353"/>
<path id="metalthing_2" fill-rule="evenodd" clip-rule="evenodd" d="M240.584 78.0769L215.99 76.8376V77.4572V78.6965L228.202 79.4711L240.414 80.2457L241.829 79.9359L242.763 79.3162L243.697 78.3867L244.32 77.1474L244.527 76.3212L244.631 75.9081L244.942 74.3589V73.1196L244.631 71.8803L244.009 71.2606L243.487 70.9693L242.899 70.641H242.141H241.518L240.895 70.9508L240.414 71.5705L239.961 72.1901L239.767 72.9647L239.65 73.4295V74.3589L239.961 74.9786L240.335 75.5983L241.207 76.2179L241.829 76.5277H242.763L242.452 77.1474L241.829 77.7671L240.584 78.0769ZM243.075 72.5L243.386 73.1196V74.3589L243.075 75.2884H242.452L241.829 74.9786L241.207 74.3589L240.895 73.7393V73.1196L241.207 72.5L241.829 71.8803H242.452L243.075 72.5Z" fill="#C4C4C4"/>
</g>
</g>
</svg>
