<svg width="296" height="391" viewBox="0 0 296 391" fill="none" xmlns="http://www.w3.org/2000/svg">
<g id="netflix">
<path id="Remas" fill-rule="evenodd" clip-rule="evenodd" d="M0 390.5V80.5H296V390.5H0ZM22 346.5V100.5H275V346.5H22Z" fill="white"/>
<g id="text">
<path d="M41 211V267.5L50 266.5V235.5L60.5 265L70 264V211H61.5L61 242.5L49.5 211H41Z" stroke="white" stroke-width="2"/>
<path d="M79 211V263L103.5 261.5V253L87.5 254V240H99.5V231.5H88V219.5H103.5V211H79Z" stroke="white" stroke-width="2"/>
<path d="M119 219.5V260.5H127.5V219.5H137V211H109.5V219.5H119Z" stroke="white" stroke-width="2"/>
<path d="M143 211V260H151.5V239.5H163.5V231.5H151.5V219.5H167.5V211H143Z" stroke="white" stroke-width="2"/>
<path d="M182.5 211H174V260.5L197.5 261.5V253.5L182.5 252.5V211Z" stroke="white" stroke-width="2"/>
<path d="M205.5 211V262L214 263V211H205.5Z" stroke="white" stroke-width="2"/>
<path d="M232.5 237.5L221 263.5L230.5 264.5L237 249L244 266.5L253.5 267.5L242 237.5L253.5 211H244L237.5 226L231.5 211H222L232.5 237.5Z" stroke="white" stroke-width="2"/>
</g>
<g id="segtukas2">
<g id="Vector 1">
<path fill-rule="evenodd" clip-rule="evenodd" d="M88.0746 59.4872L89.6311 52.6709L90.5651 45.8547L91.1877 39.9679L91.8103 29.7436L92.4329 19.5192L93.3669 5.88675L92.4329 4.09513L90.2538 3.40812L86.8293 2.78846L83.4049 2.1688L81.2257 1.85897L78.7352 1.54915L74.0656 1.85897L73.1316 2.78846L72.8203 4.09513L74.3769 4.02778L79.3579 4.95726L83.7162 6.50641L88.0746 9.29487V59.4872Z" fill="#821010"/>
<path fill-rule="evenodd" clip-rule="evenodd" d="M88.0746 59.4872L89.6311 52.6709L90.5651 45.8547L91.1877 39.9679L91.8103 29.7436L92.4329 19.5192L93.3669 5.88675L92.4329 4.09513L90.2538 3.40812L86.8293 2.78846L83.4049 2.1688L81.2257 1.85897L78.7352 1.54915L74.0656 1.85897L73.1316 2.78846L72.8203 4.09513L74.3769 4.02778L79.3579 4.95726L83.7162 6.50641L88.0746 9.29487V59.4872Z" fill="#FE6060"/>
<path d="M79.3579 83.6538L83.7162 85.203L84.9615 81.7949L85.5841 77.1474V75.9081L85.335 74.6688L84.7669 72.0353L84.3388 70.3312L83.7162 67.8526L82.1597 68.7821L80.6031 69.4017L78.4239 69.7115L76.8674 70.0214L74.9995 70.3312L72.8203 70.641H67.8393H64.1036H61.6131H60.3679L58.8113 70.3312L60.0566 72.8098L60.9905 75.9081V79.0064L60.6792 81.7949L60.0566 84.5833L59.1226 86.8761L61.9244 85.203L67.2167 83.6538H74.3769H79.3579Z" fill="#821010"/>
<path d="M79.3579 83.6538L83.7162 85.203L84.9615 81.7949L85.5841 77.1474V75.9081L85.335 74.6688L84.7669 72.0353L84.3388 70.3312L83.7162 67.8526L82.1597 68.7821L80.6031 69.4017L78.4239 69.7115L76.8674 70.0214L74.9995 70.3312L72.8203 70.641H67.8393H64.1036H61.6131H60.3679L58.8113 70.3312L60.0566 72.8098L60.9905 75.9081V79.0064L60.6792 81.7949L60.0566 84.5833L59.1226 86.8761L61.9244 85.203L67.2167 83.6538H74.3769H79.3579Z" fill="#FE6060"/>
<path d="M58.8113 142.831L61.9244 144.38L67.2167 145H74.3769L79.3579 144.38L83.7162 142.831V114.637V85.203L79.3579 83.6538H74.3769H67.2167L61.9244 85.203L59.1226 86.8761L58.8113 87.062V142.831Z" fill="#821010"/>
<path d="M58.8113 142.831L61.9244 144.38L67.2167 145H74.3769L79.3579 144.38L83.7162 142.831V114.637V85.203L79.3579 83.6538H74.3769H67.2167L61.9244 85.203L59.1226 86.8761L58.8113 87.062V142.831Z" fill="#FE6060"/>
<path d="M58.8113 52.6709V70.3312L60.3679 70.641H61.6131H64.1036H67.8393H72.8203L74.9995 70.3312L76.8674 70.0214L78.4239 69.7115L80.6031 69.4017L82.1597 68.7821L83.7162 67.8526V9.91453L79.3579 8.05556L74.3769 6.81624H67.2167L61.9244 8.05556L58.8113 9.91453L59.1226 17.9701L58.8113 52.6709Z" fill="#821010"/>
<path d="M58.8113 52.6709V70.3312L60.3679 70.641H61.6131H64.1036H67.8393H72.8203L74.9995 70.3312L76.8674 70.0214L78.4239 69.7115L80.6031 69.4017L82.1597 68.7821L83.7162 67.8526V9.91453L79.3579 8.05556L74.3769 6.81624H67.2167L61.9244 8.05556L58.8113 9.91453L59.1226 17.9701L58.8113 52.6709Z" fill="#FE6060"/>
<path d="M58.8113 142.831L61.9244 144.38L67.2167 145H74.3769L79.3579 144.38L83.7162 142.831V114.637V85.203L79.3579 83.6538H74.3769H67.2167L61.9244 85.203L59.1226 86.8761L58.8113 87.062V142.831Z" fill="#821010"/>
<path d="M58.8113 142.831L61.9244 144.38L67.2167 145H74.3769L79.3579 144.38L83.7162 142.831V114.637V85.203L79.3579 83.6538H74.3769H67.2167L61.9244 85.203L59.1226 86.8761L58.8113 87.062V142.831Z" fill="#FE6060"/>
<path d="M58.8113 52.6709V70.3312L60.3679 70.641H61.6131H64.1036H67.8393H72.8203L74.9995 70.3312L76.8674 70.0214L78.4239 69.7115L80.6031 69.4017L82.1597 68.7821L83.7162 67.8526V9.91453L79.3579 8.05556L74.3769 6.81624H67.2167L61.9244 8.05556L58.8113 9.91453L59.1226 17.9701L58.8113 52.6709Z" fill="#821010"/>
<path d="M58.8113 52.6709V70.3312L60.3679 70.641H61.6131H64.1036H67.8393H72.8203L74.9995 70.3312L76.8674 70.0214L78.4239 69.7115L80.6031 69.4017L82.1597 68.7821L83.7162 67.8526V9.91453L79.3579 8.05556L74.3769 6.81624H67.2167L61.9244 8.05556L58.8113 9.91453L59.1226 17.9701L58.8113 52.6709Z" fill="#FE6060"/>
<path d="M58.8113 52.6709V70.3312L60.3679 70.641H61.6131H64.1036H67.8393H72.8203L74.9995 70.3312L76.8674 70.0214L78.4239 69.7115L80.6031 69.4017L82.1597 68.7821L83.7162 67.8526V9.91453L79.3579 8.05556L74.3769 6.81624H67.2167L61.9244 8.05556L58.8113 9.91453L59.1226 17.9701L58.8113 52.6709Z" fill="#821010"/>
<path d="M58.8113 52.6709V70.3312L60.3679 70.641H61.6131H64.1036H67.8393H72.8203L74.9995 70.3312L76.8674 70.0214L78.4239 69.7115L80.6031 69.4017L82.1597 68.7821L83.7162 67.8526V9.91453L79.3579 8.05556L74.3769 6.81624H67.2167L61.9244 8.05556L58.8113 9.91453L59.1226 17.9701L58.8113 52.6709Z" fill="#FE6060"/>
</g>
<g id="Vector 5">
<path d="M91.1877 57.938L89.6311 64.1346L88.3859 70.0214L88.0746 67.8526V62.5855V59.4872L89.6311 52.6709L90.5651 45.8547L91.1877 39.9679L91.8103 29.7436L92.4329 19.5192L93.3669 5.88675L92.4329 4.09513L90.2538 3.40812L86.8293 2.78846L83.4049 2.1688L81.2257 1.85897L78.7352 1.54915L74.0656 1.85897L76.8674 0.619658L81.2257 0H85.8954L89.6311 0.619658L93.3669 1.23932L95.2347 2.1688L96.48 4.33761L96.1687 9.29487L95.2347 19.5192L94.6121 29.7436L93.9895 39.9679L93.3669 45.8547L92.4329 52.6709L91.1877 57.938Z" fill="#821010"/>
<path d="M91.1877 57.938L89.6311 64.1346L88.3859 70.0214L88.0746 67.8526V62.5855V59.4872L89.6311 52.6709L90.5651 45.8547L91.1877 39.9679L91.8103 29.7436L92.4329 19.5192L93.3669 5.88675L92.4329 4.09513L90.2538 3.40812L86.8293 2.78846L83.4049 2.1688L81.2257 1.85897L78.7352 1.54915L74.0656 1.85897L76.8674 0.619658L81.2257 0H85.8954L89.6311 0.619658L93.3669 1.23932L95.2347 2.1688L96.48 4.33761L96.1687 9.29487L95.2347 19.5192L94.6121 29.7436L93.9895 39.9679L93.3669 45.8547L92.4329 52.6709L91.1877 57.938Z" fill="#FE6060"/>
</g>
<g id="Vector 4">
<path d="M83.7162 114.637V142.831L85.5841 140.353L87.1406 137.564L88.0746 134.466V131.677V127.65V122.692V118.355V114.637L87.1406 112.158L86.518 110.299V109.06V108.13L86.8293 106.891L87.1406 105.652L88.0746 104.103V100.075V93.2585V88.3013V83.6538L89.6311 78.3867V75.9081V74.9786L89.0085 72.1902L88.3859 70.0214L88.0746 67.8526V62.5855V59.4872V9.29486L83.7162 6.5064L79.3579 4.95726L74.3769 4.02777L72.8203 4.09513L67.2167 4.3376L61.9244 6.81623L58.8113 9.91452L61.9244 8.05555L67.2167 6.81623H74.3769L79.3579 8.05555L83.7162 9.91452V67.8526L84.3388 70.3312L84.7669 72.0352L85.335 74.6688L85.5841 75.9081V77.1474L84.9615 81.7949L83.7162 85.203V114.637Z" fill="#821010"/>
<path d="M83.7162 114.637V142.831L85.5841 140.353L87.1406 137.564L88.0746 134.466V131.677V127.65V122.692V118.355V114.637L87.1406 112.158L86.518 110.299V109.06V108.13L86.8293 106.891L87.1406 105.652L88.0746 104.103V100.075V93.2585V88.3013V83.6538L89.6311 78.3867V75.9081V74.9786L89.0085 72.1902L88.3859 70.0214L88.0746 67.8526V62.5855V59.4872V9.29486L83.7162 6.5064L79.3579 4.95726L74.3769 4.02777L72.8203 4.09513L67.2167 4.3376L61.9244 6.81623L58.8113 9.91452L61.9244 8.05555L67.2167 6.81623H74.3769L79.3579 8.05555L83.7162 9.91452V67.8526L84.3388 70.3312L84.7669 72.0352L85.335 74.6688L85.5841 75.9081V77.1474L84.9615 81.7949L83.7162 85.203V114.637Z" fill="#FE6060"/>
</g>
<g id="Vector 3">
<path d="M58.8113 52.6709V70.3312L60.3679 70.641H61.6131H64.1036H67.8393H72.8203L74.9995 70.3312L76.8674 70.0214L78.4239 69.7115L80.6031 69.4017L82.1597 68.782L83.7162 67.8525V9.91451L79.3579 8.05554L74.3769 6.81622H67.2167L61.9244 8.05554L58.8113 9.91451L59.1226 17.9701L58.8113 52.6709Z" fill="#821010"/>
<path d="M58.8113 52.6709V70.3312L60.3679 70.641H61.6131H64.1036H67.8393H72.8203L74.9995 70.3312L76.8674 70.0214L78.4239 69.7115L80.6031 69.4017L82.1597 68.782L83.7162 67.8525V9.91451L79.3579 8.05554L74.3769 6.81622H67.2167L61.9244 8.05554L58.8113 9.91451L59.1226 17.9701L58.8113 52.6709Z" fill="#E25353"/>
<path d="M58.8113 52.6709V70.3312L60.3679 70.641H61.6131H64.1036H67.8393H72.8203L74.9995 70.3312L76.8674 70.0214L78.4239 69.7115L80.6031 69.4017L82.1597 68.782L83.7162 67.8525V9.91451L79.3579 8.05554L74.3769 6.81622H67.2167L61.9244 8.05554L58.8113 9.91451L59.1226 17.9701L58.8113 52.6709Z" fill="#821010"/>
<path d="M58.8113 52.6709V70.3312L60.3679 70.641H61.6131H64.1036H67.8393H72.8203L74.9995 70.3312L76.8674 70.0214L78.4239 69.7115L80.6031 69.4017L82.1597 68.782L83.7162 67.8525V9.91451L79.3579 8.05554L74.3769 6.81622H67.2167L61.9244 8.05554L58.8113 9.91451L59.1226 17.9701L58.8113 52.6709Z" fill="#E25353"/>
<path d="M58.8113 52.6709V70.3312L60.3679 70.641H61.6131H64.1036H67.8393H72.8203L74.9995 70.3312L76.8674 70.0214L78.4239 69.7115L80.6031 69.4017L82.1597 68.782L83.7162 67.8525V9.91451L79.3579 8.05554L74.3769 6.81622H67.2167L61.9244 8.05554L58.8113 9.91451L59.1226 17.9701L58.8113 52.6709Z" fill="#821010"/>
<path d="M58.8113 52.6709V70.3312L60.3679 70.641H61.6131H64.1036H67.8393H72.8203L74.9995 70.3312L76.8674 70.0214L78.4239 69.7115L80.6031 69.4017L82.1597 68.782L83.7162 67.8525V9.91451L79.3579 8.05554L74.3769 6.81622H67.2167L61.9244 8.05554L58.8113 9.91451L59.1226 17.9701L58.8113 52.6709Z" fill="#E25353"/>
</g>
<path id="Vector 2" d="M58.8113 142.831L61.9244 144.38L67.2167 145H74.3769L79.3579 144.38L83.7162 142.831V114.637V85.203L79.3579 83.6539H74.3769H67.2167L61.9244 85.203L59.1226 86.8761L58.8113 87.062V142.831Z" fill="#E25353"/>
<path id="metalthing" fill-rule="evenodd" clip-rule="evenodd" d="M85.5841 78.0769L60.9905 76.8376V77.4572V78.6965L73.2024 79.4711L85.4143 80.2457L86.8293 79.9359L87.7633 79.3162L88.6972 78.3867L89.3198 77.1474L89.5274 76.3212L89.6311 75.9081L89.9425 74.3589V73.1196L89.6311 71.8803L89.0085 71.2606L88.4867 70.9693L87.8986 70.641H87.1407H86.518L85.8954 70.9508L85.4143 71.5705L84.9615 72.1901L84.7669 72.9647L84.6502 73.4295V74.3589L84.9615 74.9786L85.335 75.5983L86.2067 76.2179L86.8293 76.5277H87.7633L87.452 77.1474L86.8293 77.7671L85.5841 78.0769ZM88.0746 72.5L88.3859 73.1196V74.3589L88.0746 75.2884H87.452L86.8293 74.9786L86.2067 74.3589L85.8954 73.7393V73.1196L86.2067 72.5L86.8293 71.8803H87.452L88.0746 72.5Z" fill="#C4C4C4"/>
</g>
<g id="segtukas2_2">
<g id="Vector 1_2">
<path fill-rule="evenodd" clip-rule="evenodd" d="M243.075 59.4872L244.631 52.6709L245.565 45.8547L246.188 39.9679L246.81 29.7436L247.433 19.5192L248.367 5.88675L247.433 4.09513L245.254 3.40812L241.829 2.78846L238.405 2.1688L236.226 1.85897L233.735 1.54915L229.066 1.85897L228.132 2.78846L227.82 4.09513L229.377 4.02778L234.358 4.95726L238.716 6.50641L243.075 9.29487V59.4872Z" fill="#821010"/>
<path fill-rule="evenodd" clip-rule="evenodd" d="M243.075 59.4872L244.631 52.6709L245.565 45.8547L246.188 39.9679L246.81 29.7436L247.433 19.5192L248.367 5.88675L247.433 4.09513L245.254 3.40812L241.829 2.78846L238.405 2.1688L236.226 1.85897L233.735 1.54915L229.066 1.85897L228.132 2.78846L227.82 4.09513L229.377 4.02778L234.358 4.95726L238.716 6.50641L243.075 9.29487V59.4872Z" fill="#FE6060"/>
<path d="M234.358 83.6538L238.716 85.203L239.961 81.7949L240.584 77.1474V75.9081L240.335 74.6688L239.767 72.0353L239.339 70.3312L238.716 67.8526L237.16 68.7821L235.603 69.4017L233.424 69.7115L231.867 70.0214L230 70.3312L227.82 70.641H222.839H219.104H216.613H215.368L213.811 70.3312L215.057 72.8098L215.99 75.9081V79.0064L215.679 81.7949L215.057 84.5833L214.123 86.8761L216.924 85.203L222.217 83.6538H229.377H234.358Z" fill="#821010"/>
<path d="M234.358 83.6538L238.716 85.203L239.961 81.7949L240.584 77.1474V75.9081L240.335 74.6688L239.767 72.0353L239.339 70.3312L238.716 67.8526L237.16 68.7821L235.603 69.4017L233.424 69.7115L231.867 70.0214L230 70.3312L227.82 70.641H222.839H219.104H216.613H215.368L213.811 70.3312L215.057 72.8098L215.99 75.9081V79.0064L215.679 81.7949L215.057 84.5833L214.123 86.8761L216.924 85.203L222.217 83.6538H229.377H234.358Z" fill="#FE6060"/>
<path d="M213.811 142.831L216.924 144.38L222.217 145H229.377L234.358 144.38L238.716 142.831V114.637V85.203L234.358 83.6538H229.377H222.217L216.924 85.203L214.123 86.8761L213.811 87.062V142.831Z" fill="#821010"/>
<path d="M213.811 142.831L216.924 144.38L222.217 145H229.377L234.358 144.38L238.716 142.831V114.637V85.203L234.358 83.6538H229.377H222.217L216.924 85.203L214.123 86.8761L213.811 87.062V142.831Z" fill="#FE6060"/>
<path d="M213.811 52.6709V70.3312L215.368 70.641H216.613H219.104H222.839H227.82L230 70.3312L231.867 70.0214L233.424 69.7115L235.603 69.4017L237.16 68.7821L238.716 67.8526V9.91453L234.358 8.05556L229.377 6.81624H222.217L216.924 8.05556L213.811 9.91453L214.123 17.9701L213.811 52.6709Z" fill="#821010"/>
<path d="M213.811 52.6709V70.3312L215.368 70.641H216.613H219.104H222.839H227.82L230 70.3312L231.867 70.0214L233.424 69.7115L235.603 69.4017L237.16 68.7821L238.716 67.8526V9.91453L234.358 8.05556L229.377 6.81624H222.217L216.924 8.05556L213.811 9.91453L214.123 17.9701L213.811 52.6709Z" fill="#FE6060"/>
<path d="M213.811 142.831L216.924 144.38L222.217 145H229.377L234.358 144.38L238.716 142.831V114.637V85.203L234.358 83.6538H229.377H222.217L216.924 85.203L214.123 86.8761L213.811 87.062V142.831Z" fill="#821010"/>
<path d="M213.811 142.831L216.924 144.38L222.217 145H229.377L234.358 144.38L238.716 142.831V114.637V85.203L234.358 83.6538H229.377H222.217L216.924 85.203L214.123 86.8761L213.811 87.062V142.831Z" fill="#FE6060"/>
<path d="M213.811 52.6709V70.3312L215.368 70.641H216.613H219.104H222.839H227.82L230 70.3312L231.867 70.0214L233.424 69.7115L235.603 69.4017L237.16 68.7821L238.716 67.8526V9.91453L234.358 8.05556L229.377 6.81624H222.217L216.924 8.05556L213.811 9.91453L214.123 17.9701L213.811 52.6709Z" fill="#821010"/>
<path d="M213.811 52.6709V70.3312L215.368 70.641H216.613H219.104H222.839H227.82L230 70.3312L231.867 70.0214L233.424 69.7115L235.603 69.4017L237.16 68.7821L238.716 67.8526V9.91453L234.358 8.05556L229.377 6.81624H222.217L216.924 8.05556L213.811 9.91453L214.123 17.9701L213.811 52.6709Z" fill="#FE6060"/>
<path d="M213.811 52.6709V70.3312L215.368 70.641H216.613H219.104H222.839H227.82L230 70.3312L231.867 70.0214L233.424 69.7115L235.603 69.4017L237.16 68.7821L238.716 67.8526V9.91453L234.358 8.05556L229.377 6.81624H222.217L216.924 8.05556L213.811 9.91453L214.123 17.9701L213.811 52.6709Z" fill="#821010"/>
<path d="M213.811 52.6709V70.3312L215.368 70.641H216.613H219.104H222.839H227.82L230 70.3312L231.867 70.0214L233.424 69.7115L235.603 69.4017L237.16 68.7821L238.716 67.8526V9.91453L234.358 8.05556L229.377 6.81624H222.217L216.924 8.05556L213.811 9.91453L214.123 17.9701L213.811 52.6709Z" fill="#FE6060"/>
</g>
<g id="Vector 5_2">
<path d="M246.188 57.938L244.631 64.1346L243.386 70.0214L243.075 67.8526V62.5855V59.4872L244.631 52.6709L245.565 45.8547L246.188 39.9679L246.81 29.7436L247.433 19.5192L248.367 5.88675L247.433 4.09513L245.254 3.40812L241.829 2.78846L238.405 2.1688L236.226 1.85897L233.735 1.54915L229.066 1.85897L231.867 0.619658L236.226 0H240.895L244.631 0.619658L248.367 1.23932L250.235 2.1688L251.48 4.33761L251.169 9.29487L250.235 19.5192L249.612 29.7436L248.99 39.9679L248.367 45.8547L247.433 52.6709L246.188 57.938Z" fill="#821010"/>
<path d="M246.188 57.938L244.631 64.1346L243.386 70.0214L243.075 67.8526V62.5855V59.4872L244.631 52.6709L245.565 45.8547L246.188 39.9679L246.81 29.7436L247.433 19.5192L248.367 5.88675L247.433 4.09513L245.254 3.40812L241.829 2.78846L238.405 2.1688L236.226 1.85897L233.735 1.54915L229.066 1.85897L231.867 0.619658L236.226 0H240.895L244.631 0.619658L248.367 1.23932L250.235 2.1688L251.48 4.33761L251.169 9.29487L250.235 19.5192L249.612 29.7436L248.99 39.9679L248.367 45.8547L247.433 52.6709L246.188 57.938Z" fill="#FE6060"/>
</g>
<g id="Vector 4_2">
<path d="M238.716 114.637V142.831L240.584 140.353L242.141 137.564L243.075 134.466V131.677V127.65V122.692V118.355V114.637L242.141 112.158L241.518 110.299V109.06V108.13L241.829 106.891L242.141 105.652L243.075 104.103V100.075V93.2585V88.3013V83.6538L244.631 78.3867V75.9081V74.9786L244.009 72.1902L243.386 70.0214L243.075 67.8526V62.5855V59.4872V9.29486L238.716 6.5064L234.358 4.95726L229.377 4.02777L227.82 4.09513L222.217 4.3376L216.924 6.81623L213.811 9.91452L216.924 8.05555L222.217 6.81623H229.377L234.358 8.05555L238.716 9.91452V67.8526L239.339 70.3312L239.767 72.0352L240.335 74.6688L240.584 75.9081V77.1474L239.961 81.7949L238.716 85.203V114.637Z" fill="#821010"/>
<path d="M238.716 114.637V142.831L240.584 140.353L242.141 137.564L243.075 134.466V131.677V127.65V122.692V118.355V114.637L242.141 112.158L241.518 110.299V109.06V108.13L241.829 106.891L242.141 105.652L243.075 104.103V100.075V93.2585V88.3013V83.6538L244.631 78.3867V75.9081V74.9786L244.009 72.1902L243.386 70.0214L243.075 67.8526V62.5855V59.4872V9.29486L238.716 6.5064L234.358 4.95726L229.377 4.02777L227.82 4.09513L222.217 4.3376L216.924 6.81623L213.811 9.91452L216.924 8.05555L222.217 6.81623H229.377L234.358 8.05555L238.716 9.91452V67.8526L239.339 70.3312L239.767 72.0352L240.335 74.6688L240.584 75.9081V77.1474L239.961 81.7949L238.716 85.203V114.637Z" fill="#FE6060"/>
</g>
<g id="Vector 3_2">
<path d="M213.811 52.6709V70.3312L215.368 70.641H216.613H219.104H222.839H227.82L230 70.3312L231.867 70.0214L233.424 69.7115L235.603 69.4017L237.16 68.782L238.716 67.8525V9.91451L234.358 8.05554L229.377 6.81622H222.217L216.924 8.05554L213.811 9.91451L214.123 17.9701L213.811 52.6709Z" fill="#821010"/>
<path d="M213.811 52.6709V70.3312L215.368 70.641H216.613H219.104H222.839H227.82L230 70.3312L231.867 70.0214L233.424 69.7115L235.603 69.4017L237.16 68.782L238.716 67.8525V9.91451L234.358 8.05554L229.377 6.81622H222.217L216.924 8.05554L213.811 9.91451L214.123 17.9701L213.811 52.6709Z" fill="#E25353"/>
<path d="M213.811 52.6709V70.3312L215.368 70.641H216.613H219.104H222.839H227.82L230 70.3312L231.867 70.0214L233.424 69.7115L235.603 69.4017L237.16 68.782L238.716 67.8525V9.91451L234.358 8.05554L229.377 6.81622H222.217L216.924 8.05554L213.811 9.91451L214.123 17.9701L213.811 52.6709Z" fill="#821010"/>
<path d="M213.811 52.6709V70.3312L215.368 70.641H216.613H219.104H222.839H227.82L230 70.3312L231.867 70.0214L233.424 69.7115L235.603 69.4017L237.16 68.782L238.716 67.8525V9.91451L234.358 8.05554L229.377 6.81622H222.217L216.924 8.05554L213.811 9.91451L214.123 17.9701L213.811 52.6709Z" fill="#E25353"/>
<path d="M213.811 52.6709V70.3312L215.368 70.641H216.613H219.104H222.839H227.82L230 70.3312L231.867 70.0214L233.424 69.7115L235.603 69.4017L237.16 68.782L238.716 67.8525V9.91451L234.358 8.05554L229.377 6.81622H222.217L216.924 8.05554L213.811 9.91451L214.123 17.9701L213.811 52.6709Z" fill="#821010"/>
<path d="M213.811 52.6709V70.3312L215.368 70.641H216.613H219.104H222.839H227.82L230 70.3312L231.867 70.0214L233.424 69.7115L235.603 69.4017L237.16 68.782L238.716 67.8525V9.91451L234.358 8.05554L229.377 6.81622H222.217L216.924 8.05554L213.811 9.91451L214.123 17.9701L213.811 52.6709Z" fill="#E25353"/>
</g>
<path id="Vector 2_2" d="M213.811 142.831L216.924 144.38L222.217 145H229.377L234.358 144.38L238.716 142.831V114.637V85.203L234.358 83.6539H229.377H222.217L216.924 85.203L214.123 86.8761L213.811 87.062V142.831Z" fill="#E25353"/>
<path id="metalthing_2" fill-rule="evenodd" clip-rule="evenodd" d="M240.584 78.0769L215.99 76.8376V77.4572V78.6965L228.202 79.4711L240.414 80.2457L241.829 79.9359L242.763 79.3162L243.697 78.3867L244.32 77.1474L244.527 76.3212L244.631 75.9081L244.942 74.3589V73.1196L244.631 71.8803L244.009 71.2606L243.487 70.9693L242.899 70.641H242.141H241.518L240.895 70.9508L240.414 71.5705L239.961 72.1901L239.767 72.9647L239.65 73.4295V74.3589L239.961 74.9786L240.335 75.5983L241.207 76.2179L241.829 76.5277H242.763L242.452 77.1474L241.829 77.7671L240.584 78.0769ZM243.075 72.5L243.386 73.1196V74.3589L243.075 75.2884H242.452L241.829 74.9786L241.207 74.3589L240.895 73.7393V73.1196L241.207 72.5L241.829 71.8803H242.452L243.075 72.5Z" fill="#C4C4C4"/>
</g>
</g>
</svg>
